<?xml version="1.0" encoding="utf-8"?>
<!-- Generator: Adobe Illustrator 24.0.1, SVG Export Plug-In . SVG Version: 6.00 Build 0)  -->
<svg version="1.1" xmlns="http://www.w3.org/2000/svg" xmlns:xlink="http://www.w3.org/1999/xlink" x="0px" y="0px"
	 viewBox="0 0 800 560" style="enable-background:new 0 0 800 560;" xml:space="preserve">
<style type="text/css">
	.st0{fill:#FFFFFF;}
	.st1{fill:url(#SVGID_1_);}
	.st2{filter:url(#Adobe_OpacityMaskFilter);}
	.st3{fill:url(#SVGID_3_);}
	.st4{mask:url(#SVGID_2_);}
</style>
<symbol  id="snow_x5F_far" viewBox="-31.7 -40.7 63.3 81.3">
	<circle class="st0" cx="27" cy="-15" r="1"/>
	<circle class="st0" cx="-9.5" cy="-9.1" r="1"/>
	<circle class="st0" cx="29.6" cy="-23.2" r="1"/>
	<circle class="st0" cx="30.7" cy="3.9" r="1"/>
	<circle class="st0" cx="-1.7" cy="10.2" r="1"/>
	<circle class="st0" cx="-30.7" cy="16" r="1"/>
	<circle class="st0" cx="-9.5" cy="-32.2" r="1"/>
	<circle class="st0" cx="-0.1" cy="-39.7" r="1"/>
	<circle class="st0" cx="0.4" cy="39.7" r="1"/>
	<circle class="st0" cx="5.6" cy="7.3" r="1"/>
	<circle class="st0" cx="-26.4" cy="-5.9" r="1"/>
	<circle class="st0" cx="17.3" cy="26.7" r="1"/>
</symbol>
<g id="Layer_2_1_">
	
		<linearGradient id="SVGID_1_" gradientUnits="userSpaceOnUse" x1="400" y1="589.3268" x2="400" y2="45.346" gradientTransform="matrix(1 0 0 1 0 -38)">
		<stop  offset="0" style="stop-color:#063E89"/>
		<stop  offset="0.3588" style="stop-color:#08418A;stop-opacity:0.5771"/>
		<stop  offset="0.5745" style="stop-color:#10498D;stop-opacity:0.3829"/>
		<stop  offset="0.7525" style="stop-color:#1E5793;stop-opacity:0.2228"/>
		<stop  offset="0.9088" style="stop-color:#306B9A;stop-opacity:8.206499e-02"/>
		<stop  offset="1" style="stop-color:#3F7BA0;stop-opacity:0"/>
	</linearGradient>
	<rect class="st1" width="800" height="560"/>
</g>
<g id="Layer_4">
	<defs>
		<filter id="Adobe_OpacityMaskFilter" filterUnits="userSpaceOnUse" x="8.4" y="2" width="785.5" height="288.4">
			<feFlood  style="flood-color:white;flood-opacity:1" result="back"/>
			<feBlend  in="SourceGraphic" in2="back" mode="normal"/>
		</filter>
	</defs>
	<mask maskUnits="userSpaceOnUse" x="8.4" y="2" width="785.5" height="288.4" id="SVGID_2_">
		<g class="st2">
			<linearGradient id="SVGID_3_" gradientUnits="userSpaceOnUse" x1="400" y1="551.3268" x2="400" y2="7.346">
				<stop  offset="0" style="stop-color:#FFFFFF;stop-opacity:0"/>
				<stop  offset="0.7" style="stop-color:#000000"/>
			</linearGradient>
			<rect class="st3" width="800" height="560"/>
		</g>
	</mask>
	<g class="st4">
		<g>
			
				<use xlink:href="#snow_x5F_far"  width="63.3" height="81.3" x="-31.7" y="-40.7" transform="matrix(1 0 0 -1 207.8696 70.8261)" style="overflow:visible;"/>
		</g>
		<g>
			
				<use xlink:href="#snow_x5F_far"  width="63.3" height="81.3" x="-31.7" y="-40.7" transform="matrix(2.2471 0 0 -2.2471 136.4721 141.4593)" style="overflow:visible;"/>
		</g>
		<g transform="matrix(1 0 0 1 6.103516e-05 0)">
			
				<use xlink:href="#snow_x5F_far"  width="63.3" height="81.3" x="-31.7" y="-40.7" transform="matrix(2.2471 0 0 -2.2471 681.6895 93.3478)" style="overflow:visible;"/>
		</g>
		<g>
			
				<use xlink:href="#snow_x5F_far"  width="63.3" height="81.3" x="-31.7" y="-40.7" transform="matrix(2.2471 0 0 -2.2471 436.0374 140.1304)" style="overflow:visible;"/>
		</g>
		<g>
			
				<use xlink:href="#snow_x5F_far"  width="63.3" height="81.3" x="-31.7" y="-40.7" transform="matrix(2.2471 0 0 -2.2471 284.5119 98.2174)" style="overflow:visible;"/>
		</g>
		<g>
			
				<use xlink:href="#snow_x5F_far"  width="63.3" height="81.3" x="-31.7" y="-40.7" transform="matrix(1.7976 0 0 -1.7976 213.4783 190.0542)" style="overflow:visible;"/>
		</g>
		<g>
			
				<use xlink:href="#snow_x5F_far"  width="63.3" height="81.3" x="-31.7" y="-40.7" transform="matrix(1.7976 0 0 -1.7976 65.3478 143.9407)" style="overflow:visible;"/>
		</g>
		<g>
			
				<use xlink:href="#snow_x5F_far"  width="63.3" height="81.3" x="-31.7" y="-40.7" transform="matrix(1.7976 0 0 -1.7976 341.9284 155.5668)" style="overflow:visible;"/>
		</g>
		<g>
			
				<use xlink:href="#snow_x5F_far"  width="63.3" height="81.3" x="-31.7" y="-40.7" transform="matrix(1.7976 0 0 -1.7976 524.7982 107.6555)" style="overflow:visible;"/>
		</g>
		<g>
			
				<use xlink:href="#snow_x5F_far"  width="63.3" height="81.3" x="-31.7" y="-40.7" transform="matrix(1.7976 0 0 -1.7976 414.6414 212.5248)" style="overflow:visible;"/>
		</g>
		<g>
			
				<use xlink:href="#snow_x5F_far"  width="63.3" height="81.3" id="XMLID_1_" x="-31.7" y="-40.7" transform="matrix(1.7976 0 0 -1.7976 737.0258 156.2897)" style="overflow:visible;"/>
		</g>
		<g>
			
				<use xlink:href="#snow_x5F_far"  width="63.3" height="81.3" x="-31.7" y="-40.7" transform="matrix(1.7976 0 0 -1.7976 593.644 166.4113)" style="overflow:visible;"/>
		</g>
		<g>
			
				<use xlink:href="#snow_x5F_far"  width="63.3" height="81.3" x="-31.7" y="-40.7" transform="matrix(1 0 0 -1 373.4348 70.8261)" style="overflow:visible;"/>
		</g>
		<g>
			
				<use xlink:href="#snow_x5F_far"  width="63.3" height="81.3" x="-31.7" y="-40.7" transform="matrix(1 0 0 -1 306.0801 94.5249)" style="overflow:visible;"/>
		</g>
		<g>
			
				<use xlink:href="#snow_x5F_far"  width="63.3" height="81.3" x="-31.7" y="-40.7" transform="matrix(1 0 0 -1 609.1739 66)" style="overflow:visible;"/>
		</g>
		<g>
			
				<use xlink:href="#snow_x5F_far"  width="63.3" height="81.3" x="-31.7" y="-40.7" transform="matrix(1 0 0 -1 502.6675 174.5007)" style="overflow:visible;"/>
		</g>
		<g>
			
				<use xlink:href="#snow_x5F_far"  width="63.3" height="81.3" x="-31.7" y="-40.7" transform="matrix(1 0 0 -1 180.4348 183.6311)" style="overflow:visible;"/>
		</g>
		<g>
			
				<use xlink:href="#snow_x5F_far"  width="63.3" height="81.3" x="-31.7" y="-40.7" transform="matrix(1 0 0 -1 280.6454 233.5885)" style="overflow:visible;"/>
		</g>
		<g>
			
				<use xlink:href="#snow_x5F_far"  width="63.3" height="81.3" x="-31.7" y="-40.7" transform="matrix(1 0 0 -1 532.2762 249.7674)" style="overflow:visible;"/>
		</g>
		<g>
			
				<use xlink:href="#snow_x5F_far"  width="63.3" height="81.3" x="-31.7" y="-40.7" transform="matrix(1 0 0 -1 475.4802 54.6056)" style="overflow:visible;"/>
		</g>
		<g>
			
				<use xlink:href="#snow_x5F_far"  width="63.3" height="81.3" x="-31.7" y="-40.7" transform="matrix(1 0 0 -1 388.5891 171.9801)" style="overflow:visible;"/>
		</g>
		<g>
			
				<use xlink:href="#snow_x5F_far"  width="63.3" height="81.3" x="-31.7" y="-40.7" transform="matrix(1 0 0 -1 720.5734 132.3279)" style="overflow:visible;"/>
		</g>
		<g>
			
				<use xlink:href="#snow_x5F_far"  width="63.3" height="81.3" x="-31.7" y="-40.7" transform="matrix(1 0 0 -1 726.5217 52.6957)" style="overflow:visible;"/>
		</g>
		<g>
			
				<use xlink:href="#snow_x5F_far"  width="63.3" height="81.3" x="-31.7" y="-40.7" transform="matrix(1 0 0 -1 60.7391 62.087)" style="overflow:visible;"/>
		</g>
	</g>
</g>
</svg>
