<svg xmlns="http://www.w3.org/2000/svg" xmlns:xlink="http://www.w3.org/1999/xlink" viewBox="0 0 800 450"><defs><style>.cls-1{fill:url(#linear-gradient);}.cls-2{isolation:isolate;}.cls-3{fill:url(#linear-gradient-2);}.cls-4{fill:url(#linear-gradient-3);}.cls-5{fill:url(#linear-gradient-4);}.cls-6{fill:url(#linear-gradient-5);}.cls-7{fill:url(#linear-gradient-6);}.cls-8{fill:url(#linear-gradient-7);}.cls-9{fill:url(#linear-gradient-8);}.cls-10{fill:url(#linear-gradient-9);}.cls-11{fill:url(#linear-gradient-10);}.cls-12{fill:url(#linear-gradient-11);}.cls-13{fill:url(#linear-gradient-12);}.cls-14{fill:url(#linear-gradient-13);}.cls-15{fill:url(#linear-gradient-14);}.cls-16{fill:url(#linear-gradient-15);}.cls-17{fill:url(#linear-gradient-16);}.cls-18{fill:url(#linear-gradient-17);}.cls-19{fill:url(#linear-gradient-18);}.cls-20{fill:url(#linear-gradient-19);}.cls-21{fill:url(#linear-gradient-20);}.cls-22{fill:url(#linear-gradient-21);}.cls-23{fill:url(#linear-gradient-22);}.cls-24{fill:url(#linear-gradient-23);}.cls-25{fill:url(#linear-gradient-24);}.cls-26{fill:url(#linear-gradient-25);}.cls-27{fill:url(#linear-gradient-26);}.cls-28{fill:url(#linear-gradient-27);}.cls-29{fill:url(#linear-gradient-28);}.cls-30{fill:url(#linear-gradient-29);}.cls-31{fill:url(#linear-gradient-30);}.cls-32{fill:url(#linear-gradient-31);}.cls-33{fill:url(#linear-gradient-32);}.cls-34{fill:url(#linear-gradient-33);}.cls-35{fill:url(#linear-gradient-34);}.cls-36{fill:url(#linear-gradient-35);}.cls-37{fill:url(#linear-gradient-36);}.cls-38{opacity:0.22;mix-blend-mode:multiply;fill:url(#linear-gradient-37);}.cls-39{fill:#e8eaf6;stroke:#333;stroke-miterlimit:10;stroke-width:0.25px;}.cls-40{fill:#ffccbc;}.cls-41{fill:#263238;}.cls-42{fill:#fff3ff;}.cls-43{fill:#ef5350;}.cls-44{fill:#d85b16;}.cls-45{fill:#312656;}.cls-46{fill:#8e462f;}.cls-47{fill:#b7bbbc;}.cls-48{fill:#f2680a;}.cls-49{fill:#919191;}.cls-50{fill:#312e54;}.cls-51{fill:#1e88e5;}.cls-52{fill:#5d4037;}.cls-53{fill:#bf360c;}.cls-54{fill:#00838f;}.cls-55{fill:#004547;}.cls-56{fill:#006064;}.cls-57{fill:#4e5a83;}.cls-58{fill:#42456d;}.cls-59{fill:url(#linear-gradient-38);}.cls-60{fill:#1a5a84;}</style><linearGradient id="linear-gradient" x1="8.29" y1="0.48" x2="12.19" y2="41.58" gradientUnits="userSpaceOnUse"><stop offset="0" stop-color="#214a78"/><stop offset="1" stop-color="#4e89c5"/></linearGradient><linearGradient id="linear-gradient-2" x1="400" y1="-61.87" x2="400" y2="202.81" gradientUnits="userSpaceOnUse"><stop offset="0" stop-color="#00194f"/><stop offset="0.21" stop-color="#00306c"/><stop offset="0.5" stop-color="#01559b"/><stop offset="0.69" stop-color="#677687"/><stop offset="0.9" stop-color="#d39a72"/><stop offset="1" stop-color="#ffa86a"/></linearGradient><linearGradient id="linear-gradient-3" x1="255.09" y1="187.14" x2="251.55" y2="82.09" gradientUnits="userSpaceOnUse"><stop offset="0" stop-color="#2865a4"/><stop offset="1" stop-color="#4e89c5"/></linearGradient><linearGradient id="linear-gradient-4" x1="341.53" y1="217.29" x2="337.52" y2="98.42" xlink:href="#linear-gradient-3"/><linearGradient id="linear-gradient-5" x1="355.02" y1="239.98" x2="351.84" y2="145.59" xlink:href="#linear-gradient-3"/><linearGradient id="linear-gradient-6" x1="293.43" y1="200.73" x2="289.38" y2="80.65" xlink:href="#linear-gradient-3"/><linearGradient id="linear-gradient-7" x1="384.82" y1="199.25" x2="521.37" y2="199.25" gradientUnits="userSpaceOnUse"><stop offset="0" stop-color="#f1aa94"/><stop offset="1" stop-color="#4e89c5"/></linearGradient><linearGradient id="linear-gradient-8" x1="385.51" y1="153.87" x2="593.48" y2="153.87" xlink:href="#linear-gradient-7"/><linearGradient id="linear-gradient-9" x1="382.57" y1="158.42" x2="567.62" y2="158.42" xlink:href="#linear-gradient-7"/><linearGradient id="linear-gradient-10" x1="455.76" y1="187.75" x2="511.04" y2="283.49" gradientUnits="userSpaceOnUse"><stop offset="0" stop-color="#89b17f"/><stop offset="1" stop-color="#3f7ba0"/></linearGradient><linearGradient id="linear-gradient-11" x1="593.96" y1="199.16" x2="655.94" y2="306.51" xlink:href="#linear-gradient-10"/><linearGradient id="linear-gradient-12" x1="524.64" y1="188.58" x2="576.15" y2="277.79" xlink:href="#linear-gradient-10"/><linearGradient id="linear-gradient-13" x1="606.11" y1="233.15" x2="667.13" y2="338.84" xlink:href="#linear-gradient-10"/><linearGradient id="linear-gradient-14" x1="273.58" y1="281.73" x2="291.07" y2="244.21" xlink:href="#linear-gradient-10"/><linearGradient id="linear-gradient-15" x1="183.42" y1="334.17" x2="218.75" y2="258.41" xlink:href="#linear-gradient-10"/><linearGradient id="linear-gradient-16" x1="192.8" y1="314.86" x2="234.78" y2="224.83" xlink:href="#linear-gradient-10"/><linearGradient id="linear-gradient-17" x1="123.17" y1="357.21" x2="153.36" y2="292.45" xlink:href="#linear-gradient-10"/><linearGradient id="linear-gradient-18" x1="97.99" y1="400.7" x2="145.21" y2="299.44" xlink:href="#linear-gradient-10"/><linearGradient id="linear-gradient-19" x1="138.82" y1="339.76" x2="166.36" y2="280.69" xlink:href="#linear-gradient-10"/><linearGradient id="linear-gradient-20" x1="152.81" y1="330.89" x2="179.48" y2="273.67" xlink:href="#linear-gradient-10"/><linearGradient id="linear-gradient-21" x1="459.03" y1="320.92" x2="473.57" y2="346.1" xlink:href="#linear-gradient-10"/><linearGradient id="linear-gradient-22" x1="604.9" y1="271.02" x2="657.45" y2="362.03" xlink:href="#linear-gradient-10"/><linearGradient id="linear-gradient-23" x1="624.04" y1="278.99" x2="700.94" y2="412.19" xlink:href="#linear-gradient-10"/><linearGradient id="linear-gradient-24" x1="654.2" y1="291.75" x2="703.97" y2="377.96" xlink:href="#linear-gradient-10"/><linearGradient id="linear-gradient-25" x1="586.45" y1="262.28" x2="644.75" y2="363.27" xlink:href="#linear-gradient-10"/><linearGradient id="linear-gradient-26" x1="513.64" y1="312.49" x2="525.09" y2="377.43" xlink:href="#linear-gradient"/><linearGradient id="linear-gradient-27" x1="400" y1="331.11" x2="400" y2="406.23" gradientUnits="userSpaceOnUse"><stop offset="0" stop-color="#b0d9f7"/><stop offset="0.52" stop-color="#4380af"/><stop offset="1" stop-color="#24619a"/></linearGradient><linearGradient id="linear-gradient-28" x1="840.03" y1="422.99" x2="851.43" y2="391.66" gradientTransform="matrix(-1, 0, 0, 1, 1113.66, 0)" gradientUnits="userSpaceOnUse"><stop offset="0" stop-color="#c56974"/><stop offset="1" stop-color="#58466e"/></linearGradient><linearGradient id="linear-gradient-29" x1="891.72" y1="438.82" x2="903.24" y2="407.18" xlink:href="#linear-gradient-28"/><linearGradient id="linear-gradient-30" x1="893" y1="442.43" x2="900.8" y2="421.01" xlink:href="#linear-gradient-28"/><linearGradient id="linear-gradient-31" x1="666.03" y1="334.21" x2="666.03" y2="524.71" gradientTransform="translate(-168.6)" xlink:href="#linear-gradient-10"/><linearGradient id="linear-gradient-32" x1="414.68" y1="397.23" x2="423.37" y2="373.36" xlink:href="#linear-gradient-28"/><linearGradient id="linear-gradient-33" x1="437.84" y1="426.97" x2="447.57" y2="400.25" xlink:href="#linear-gradient-28"/><linearGradient id="linear-gradient-34" x1="421.81" y1="435.55" x2="431.01" y2="410.25" xlink:href="#linear-gradient-28"/><linearGradient id="linear-gradient-35" x1="364.78" y1="468.37" x2="379.45" y2="428.08" xlink:href="#linear-gradient-28"/><linearGradient id="linear-gradient-36" x1="387.59" y1="449.55" x2="399.92" y2="415.69" xlink:href="#linear-gradient-28"/><linearGradient id="linear-gradient-37" x1="509.13" y1="382.45" x2="577.95" y2="382.45" gradientTransform="translate(10.4)" xlink:href="#linear-gradient-10"/><linearGradient id="linear-gradient-38" x1="1222.49" y1="323.48" x2="1222.49" y2="361.06" gradientTransform="matrix(-1, 0, 0, 1, 1414.99, 0)" xlink:href="#linear-gradient-10"/><symbol id="Tree" data-name="Tree" viewBox="0 0 22.4 41.7"><path class="cls-1" d="M13.4,0,7.2,7.3c.7.3,1.1,1.1,1.7,1.5a4.9,4.9,0,0,0-2.8,2.9c.6.4,1,1.2,1.5,1.7-1.2.4-2.1,1.7-3.3,2.2l1.4,1.5c-.8.2-1.4,1-2.1,1.3.7.6,1.1,1.7,1.9,2.2-1.1.1-2.2.6-3.3.6.8.3,1.4,1,2.1,1.4l-1.9.9c1.1.5,1.9,1.6,2.9,2.1C4.2,25.7,3.1,26.6,2,27c.8.6,1.1,1.7,1.9,2.2a20.4,20.4,0,0,1-2.2,1.5c.7,1.6-.7,2.2,1.2,3.9C1.9,34.9,1.1,36,0,36.4c2.9,3.4,13.1-2.2,10.1,5.2,3.1.9,1.5-3.5,6.1-3.1,2.8.2,3.6,3.1,6.1-.5-1-.3-1.8-1.3-2.7-1.6.8-.6,1.3-1.7,2.2-2.2l-1.2-.5L22,32c-.9-.4-1.5-1.3-2.3-1.7.9-.4,1.5-1.5,2.4-2-1-.5-1.8-1.5-2.8-2,2,.2,2.1-.2,3-1a18,18,0,0,1-2.2-.9l1.8-.5L17.8,21c.9,0,1.7-.4,2.6-.4-1-.7-1.6-1.8-2.5-2.5.7,0,1.4-.5,2.2-.6l-3.7-4,1.7-.9-1.5-1.2C22.4,13.5,14.3,2,13.4,0Z"/></symbol></defs><title>main-bg2</title><g class="cls-2"><g id="Layer_1" data-name="Layer 1"><rect id="sky" class="cls-3" width="800" height="450"/><g id="mountain"><path class="cls-4" d="M379.3,79.5a47,47,0,0,0-22.2,5c-78.4,39.9-155.6,74.8-229.2,118a541.6,541.6,0,0,1,56.9,13.1C247.6,167.6,312.3,121.3,379.3,79.5Z"/><path class="cls-5" d="M391,144.3l-3.1,2.2c19.7,3.8,38.2,14.3,58.1,20.4a374,374,0,0,0-46.8-68.8c-58.3,39.8-111,86.4-163.2,134.3q20.8,7.7,41.3,16.5c32.6-37.4,68.3-71.9,108.6-100.9l-1.3-2.1,3.4.6Z"/><path class="cls-6" d="M384.5,145.9c-40.3,29-74.7,65.6-107.3,103q17.9,7.6,35.7,15.9c40.4-2.6,80.6-7,120.7-12.8C420.7,216.2,404.3,179.1,384.5,145.9Z"/><path class="cls-7" d="M382.6,79.6l-3.3-.2c-66.9,41.9-131.6,88.2-194.5,136.1,17.3,4.9,34.3,10.6,51.1,16.9C288.2,184.6,340.8,138,399.1,98.2Q391.1,88.7,382.6,79.6Z"/><path class="cls-8" d="M433.6,252.1q44.1-6.3,87.8-14.9c-41.9-35.2-88.6-64.9-136.5-90.8C405.1,180.1,420.5,215.6,433.6,252.1Z"/><path class="cls-9" d="M593.5,222.1c-51.7-34.3-102.8-70.2-152.4-111.7C424.7,96.1,405.3,82.7,385.5,80c58.1,51.8,118.7,101.7,182.1,147.8Z"/><path class="cls-10" d="M385.5,80l-2.9-.3C407.2,105.8,429,134.5,446,167c-21-6.5-40.4-17.8-61.4-21l.3.5c47.9,25.9,94.6,55.6,136.5,90.8q23.2-4.5,46.3-9.4C504.2,181.7,443.6,131.8,385.5,80Z"/></g><use width="22.3" height="41.7" transform="translate(103.5 168.7) scale(0.52 0.52)" xlink:href="#Tree"/><use width="22.3" height="41.7" transform="translate(106.8 173.1) scale(0.52 0.52)" xlink:href="#Tree"/><use width="22.3" height="41.7" transform="translate(113.3 174.8) scale(0.52 0.52)" xlink:href="#Tree"/><use width="22.3" height="41.7" transform="translate(120.1 177.6) scale(0.52 0.52)" xlink:href="#Tree"/><use width="22.3" height="41.7" transform="translate(131 180.7) scale(0.52 0.52)" xlink:href="#Tree"/><use width="22.3" height="41.7" transform="translate(136.8 186.7) scale(0.52 0.52)" xlink:href="#Tree"/><use width="22.3" height="41.7" transform="translate(99.6 175.8) scale(0.52 0.52)" xlink:href="#Tree"/><use width="22.3" height="41.7" transform="translate(105.9 179.1) scale(0.52 0.52)" xlink:href="#Tree"/><use width="22.3" height="41.7" transform="translate(98.2 172.4) scale(0.52 0.52)" xlink:href="#Tree"/><use width="22.3" height="41.7" transform="translate(124.2 179.1) scale(0.52 0.52)" xlink:href="#Tree"/><use width="22.3" height="41.7" transform="translate(604.4 207.4) scale(0.7 0.7)" xlink:href="#Tree"/><use width="22.3" height="41.7" transform="translate(645.7 183.2) scale(0.7 0.7)" xlink:href="#Tree"/><use width="22.3" height="41.7" transform="translate(652.2 189) scale(0.7 0.7)" xlink:href="#Tree"/><use width="22.3" height="41.7" transform="translate(640 192.7) scale(0.7 0.7)" xlink:href="#Tree"/><use width="22.3" height="41.7" transform="translate(628 196.7) scale(0.7 0.7)" xlink:href="#Tree"/><use width="22.3" height="41.7" transform="translate(616.5 200.3) scale(0.7 0.7)" xlink:href="#Tree"/><use width="22.3" height="41.7" transform="translate(600.8 204.8) scale(0.7 0.7)" xlink:href="#Tree"/><use width="22.3" height="41.7" transform="translate(621.6 215.3) scale(0.01 0)" xlink:href="#Tree"/><path class="cls-11" d="M610.5,217.3c-92.3,20.9-185.5,36.4-279.7,42.6l17.3,8.1,21,10.1c78.1-1.5,157.1-3.8,228.9-45q19-11.2,37.8-21.7Z"/><path class="cls-12" d="M800,223.3V146.7c-20.4,11.4-178.7,101.3-200.2,110.7-58.1,23.5-119.9,37.6-183.1,44.2l38.2,18.8c35.9-1.6,71.8-19.7,107.7-29C596.7,282.1,767.1,234.3,800,223.3Z"/><path class="cls-13" d="M730,189v-2.8c-10.7-.7-34.5-3-61.8,6.5-18.5,4.2-57,32.9-69.7,40.4-71.8,41.3-150.9,43.5-228.9,45,15.9,7.7,31.7,15.6,47.5,23.4,63.2-6.6,124.9-20.6,183.1-44.2C621.7,247.9,709.6,200.4,730,189Z"/><path class="cls-14" d="M563,291.3c-35.9,9.3-71.8,27.4-107.7,29l17.2,8.3c62.1-18.9,192.8-36.2,327.5-66.4V220.5C692,234.2,597.1,282.1,563,291.3Z"/><path class="cls-15" d="M459.3,330.3a40.9,40.9,0,0,0,12.8-1.7C359.3,264.8,270.6,229.4,217,218c-37.1-7.9-111.1-26.5-121-28C168,233,334,297,459.3,330.3Z"/><path class="cls-16" d="M0,225v23.7c130-21.2,227.1,56,289.7,86.6,14,6.9,28.3,13.5,43,19.8h65.8l11.8-4.7-3.9-1.8C308.9,302.9,115.8,190.6,0,225Z"/><path class="cls-17" d="M463.2,331.3l-3.9-1.1C330.5,295.4,229,254,152.9,217.2q-24.4-11.8-45.3-22.9C57.1,167.6,21.5,145.2,0,132v93c115.8-34.4,308.9,78,406.4,123.6l3.5,1.5C427.5,343.1,445.3,337,463.2,331.3Z"/><use width="22.3" height="41.7" transform="translate(90.6 209.3)" xlink:href="#Tree"/><use width="22.3" height="41.7" transform="translate(96.9 216.9) scale(0.99 0.99)" xlink:href="#Tree"/><use width="22.3" height="41.7" transform="translate(109.6 220.9)" xlink:href="#Tree"/><use width="22.3" height="41.7" transform="translate(122 226.5) scale(0.99 0.99)" xlink:href="#Tree"/><use width="22.3" height="41.7" transform="translate(129.8 227.3) scale(0.99 0.99)" xlink:href="#Tree"/><use width="22.3" height="41.7" transform="translate(144.1 233.7) scale(0.99 0.99)" xlink:href="#Tree"/><use width="22.3" height="41.7" transform="translate(158.8 243.6) scale(0.99 0.99)" xlink:href="#Tree"/><use width="22.3" height="41.7" transform="translate(182.3 260.5) scale(0.99 0.99)" xlink:href="#Tree"/><use width="22.3" height="41.7" transform="translate(200.2 263.3) scale(0.99 0.99)" xlink:href="#Tree"/><use width="22.3" height="41.7" transform="translate(169.9 252.8) scale(0.99 0.99)" xlink:href="#Tree"/><use width="22.3" height="41.7" transform="translate(228.6 282.3) scale(0.99 0.99)" xlink:href="#Tree"/><use width="22.3" height="41.7" transform="translate(254.2 295) scale(0.99 0.99)" xlink:href="#Tree"/><use width="22.3" height="41.7" transform="translate(240.7 295.9) scale(0.99 0.99)" xlink:href="#Tree"/><use width="22.3" height="41.7" transform="translate(286.3 312.6) scale(0.99 0.99)" xlink:href="#Tree"/><use width="22.3" height="41.7" transform="translate(212.9 271.7) scale(0.99 0.99)" xlink:href="#Tree"/><use width="22.3" height="41.7" transform="translate(301.8 316.8) scale(0.99 0.99)" xlink:href="#Tree"/><use width="22.3" height="41.7" transform="translate(267.2 313) scale(0.99 0.99)" xlink:href="#Tree"/><use width="22.3" height="41.7" transform="translate(251.8 305.3) scale(0.99 0.99)" xlink:href="#Tree"/><use width="22.3" height="41.7" transform="translate(223.9 289) scale(0.99 0.99)" xlink:href="#Tree"/><use width="22.3" height="41.7" transform="translate(167.7 261.6) scale(0.99 0.99)" xlink:href="#Tree"/><use width="22.3" height="41.7" transform="translate(147.8 250) scale(0.99 0.99)" xlink:href="#Tree"/><use width="22.3" height="41.7" transform="translate(83.2 222.9)" xlink:href="#Tree"/><use width="22.3" height="41.7" transform="translate(95.3 229.2)" xlink:href="#Tree"/><use width="22.3" height="41.7" transform="translate(117.9 237.8) scale(0.99 0.99)" xlink:href="#Tree"/><use width="22.3" height="41.7" transform="translate(205.3 278.8) scale(0.99 0.99)" xlink:href="#Tree"/><g id="mid_right_trees" data-name="mid right trees"><use width="22.3" height="41.7" transform="translate(541.6 283.6) scale(0.99 0.99)" xlink:href="#Tree"/><use width="22.3" height="41.7" transform="translate(557.4 282) scale(0.99 0.99)" xlink:href="#Tree"/><use width="22.3" height="41.7" transform="translate(498 300.6) scale(0.99 0.99)" xlink:href="#Tree"/><use width="22.3" height="41.7" transform="translate(509.6 299.6) scale(0.99 0.99)" xlink:href="#Tree"/><use width="22.3" height="41.7" transform="translate(522.9 299.1) scale(0.99 0.99)" xlink:href="#Tree"/><use width="22.3" height="41.7" transform="translate(516.8 302.3) scale(0.99 0.99)" xlink:href="#Tree"/><use width="22.3" height="41.7" transform="translate(503.4 303.2) scale(0.99 0.99)" xlink:href="#Tree"/><use width="22.3" height="41.7" transform="translate(532 299.5) scale(0.99 0.99)" xlink:href="#Tree"/><use width="22.3" height="41.7" transform="translate(536.7 301.1) scale(0.99 0.99)" xlink:href="#Tree"/><use width="22.3" height="41.7" transform="translate(577.3 277.7) scale(0.99 0.99)" xlink:href="#Tree"/><use width="22.3" height="41.7" transform="translate(543.5 297.5) scale(0.99 0.99)" xlink:href="#Tree"/><use width="22.3" height="41.7" transform="translate(552.7 298.3) scale(0.99 0.99)" xlink:href="#Tree"/><use width="22.3" height="41.7" transform="translate(566.4 286.7) scale(0.99 0.99)" xlink:href="#Tree"/><use width="22.3" height="41.7" transform="translate(591 280.1) scale(0.99 0.99)" xlink:href="#Tree"/><use width="22.3" height="41.7" transform="translate(601.5 282.9) scale(0.99 0.99)" xlink:href="#Tree"/><use width="22.3" height="41.7" transform="translate(608.6 272.9) scale(0.99 0.99)" xlink:href="#Tree"/><use width="22.3" height="41.7" transform="translate(621.1 264) scale(0.99 0.99)" xlink:href="#Tree"/><use width="22.3" height="41.7" transform="translate(633.4 263.6) scale(0.99 0.99)" xlink:href="#Tree"/><use width="22.3" height="41.7" transform="translate(641.1 263.1) scale(0.99 0.99)" xlink:href="#Tree"/><use width="22.3" height="41.7" transform="translate(652.4 256.4) scale(0.99 0.99)" xlink:href="#Tree"/></g><path class="cls-18" d="M0,275v24.7c91.8-15.5,209.3,35.9,264.4,55.2h21.3a738.2,738.2,0,0,1-107.5-50.5h-.1C151.9,290.1,84.6,261.8,0,275Z"/><path class="cls-19" d="M0,299.8V355H264.4C209.3,335.7,91.8,284.3,0,299.8Z"/><path class="cls-20" d="M0,259.6V275c84.6-13.3,151.9,15.1,178.1,29.4h.1A738.2,738.2,0,0,0,285.7,355h22.2c-40.5-17.7-79-42.8-118.4-63.4C159.9,277.4,96.7,245.5,0,259.6Z"/><path class="cls-21" d="M289.7,335.2C226.9,304.5,141.9,224.6,0,248.7v11c96.7-14.1,159.9,17.8,189.5,31.9,39.4,20.6,77.9,45.7,118.4,63.4h24.8C318.1,348.8,303.7,342.1,289.7,335.2Z"/><path class="cls-22" d="M400,355h25.7c35.1-15.1,70.7-29.9,106.9-43C467.5,325.3,410.6,348.8,400,355Z"/><path class="cls-23" d="M800,273c-68.8-3.9-275.7,51.2-340.6,82h32.9c54.9-24.2,248.4-68.9,307.6-75.3Z"/><path class="cls-24" d="M800,279.7c-64.7,7.5-252.7,51.1-307.6,75.3H800Z"/><path class="cls-25" d="M544.6,355H659.7c46.2-12.9,93-23.9,140.3-32.5V291.3C714.5,310.9,629.3,332.5,544.6,355Z"/><path class="cls-26" d="M800,261.3c-49,4.2-224.6,39.8-267.3,50.7-36.2,13.1-71.7,27.8-106.9,43h33.6c64.9-30.8,300.8-82.9,340.6-81.4Z"/><g id="front_trees" data-name="front trees"><use width="22.3" height="41.7" transform="translate(586.3 305) scale(1.59 1.59)" xlink:href="#Tree"/><use width="22.3" height="41.7" transform="translate(594.3 307.8) scale(1.59 1.59)" xlink:href="#Tree"/><use width="22.3" height="41.7" transform="translate(599 308.8) scale(1.59 1.59)" xlink:href="#Tree"/><use width="22.3" height="41.7" transform="translate(573.8 307) scale(1.59 1.59)" xlink:href="#Tree"/><use width="22.3" height="41.7" transform="translate(616.4 309.7) scale(1.59 1.59)" xlink:href="#Tree"/><use width="22.3" height="41.7" transform="translate(632.4 314.9) scale(1.59 1.59)" xlink:href="#Tree"/><use width="22.3" height="41.7" transform="translate(651.1 314.4) scale(1.59 1.59)" xlink:href="#Tree"/><use width="22.3" height="41.7" transform="translate(672.5 314.9) scale(1.59 1.59)" xlink:href="#Tree"/><use width="22.3" height="41.7" transform="translate(687.2 316.5) scale(1.59 1.59)" xlink:href="#Tree"/><use width="22.3" height="41.7" transform="translate(694.5 319.5) scale(1.59 1.59)" xlink:href="#Tree"/><use width="22.3" height="41.7" transform="translate(705.8 314.4) scale(1.59 1.59)" xlink:href="#Tree"/><use width="22.3" height="41.7" transform="translate(720.5 316.5) scale(1.59 1.59)" xlink:href="#Tree"/><use width="22.3" height="41.7" transform="translate(733.9 319.5) scale(1.59 1.59)" xlink:href="#Tree"/><use width="22.3" height="41.7" transform="translate(1.2 304.2) scale(1.59 1.59)" xlink:href="#Tree"/><use width="22.3" height="41.7" transform="translate(20 303.6) scale(1.59 1.59)" xlink:href="#Tree"/><use width="22.3" height="41.7" transform="translate(41.3 304.2) scale(1.59 1.59)" xlink:href="#Tree"/><use width="22.3" height="41.7" transform="translate(56 305.7) scale(1.59 1.59)" xlink:href="#Tree"/><use width="22.3" height="41.7" transform="translate(63.3 308.8) scale(1.59 1.59)" xlink:href="#Tree"/><use width="22.3" height="41.7" transform="translate(74.6 303.6) scale(1.59 1.59)" xlink:href="#Tree"/><use width="22.3" height="41.7" transform="translate(89.3 305.7) scale(1.59 1.59)" xlink:href="#Tree"/><use width="22.3" height="41.7" transform="translate(102.7 308.8) scale(1.59 1.59)" xlink:href="#Tree"/><use width="22.3" height="41.7" transform="translate(112 305.7) scale(1.59 1.59)" xlink:href="#Tree"/><use width="22.3" height="41.7" transform="translate(128.3 297.9) scale(1.59 1.59)" xlink:href="#Tree"/><use width="22.3" height="41.7" transform="translate(131.9 309.3) scale(1.59 1.59)" xlink:href="#Tree"/><use width="22.3" height="41.7" transform="translate(145 311.7) scale(1.59 1.59)" xlink:href="#Tree"/><use width="22.3" height="41.7" transform="translate(165.5 301.9) scale(1.59 1.59)" xlink:href="#Tree"/><use width="22.3" height="41.7" transform="translate(174.4 307) scale(1.59 1.59)" xlink:href="#Tree"/><use width="22.3" height="41.7" transform="translate(185.5 306.7) scale(1.59 1.59)" xlink:href="#Tree"/><use width="22.3" height="41.7" transform="translate(193.7 299.9) scale(1.59 1.59)" xlink:href="#Tree"/><use width="22.3" height="41.7" transform="translate(196.8 295.9) scale(1.59 1.59)" xlink:href="#Tree"/><use width="22.3" height="41.7" transform="translate(205.2 305.2) scale(1.59 1.59)" xlink:href="#Tree"/><use width="22.3" height="41.7" transform="translate(219.2 307.3) scale(1.59 1.59)" xlink:href="#Tree"/><use width="22.3" height="41.7" transform="translate(396.7 296.6) scale(1.59 1.59)" xlink:href="#Tree"/><use width="22.3" height="41.7" transform="translate(419.9 323.1) scale(0.03 0.01)" xlink:href="#Tree"/><use width="22.3" height="41.7" transform="translate(404.7 299.4) scale(1.59 1.59)" xlink:href="#Tree"/><use width="22.3" height="41.7" transform="translate(427.8 325.8) scale(0.03 0.01)" xlink:href="#Tree"/><use width="22.3" height="41.7" transform="translate(409.5 300.4) scale(1.59 1.59)" xlink:href="#Tree"/><use width="22.3" height="41.7" transform="translate(432.6 326.8) scale(0.03 0.01)" xlink:href="#Tree"/><use width="22.3" height="41.7" transform="translate(384.3 298.6) scale(1.59 1.59)" xlink:href="#Tree"/><use width="22.3" height="41.7" transform="translate(407.4 325.1) scale(0.03 0.01)" xlink:href="#Tree"/><use width="22.3" height="41.7" transform="translate(426.8 301.3) scale(1.59 1.59)" xlink:href="#Tree"/><use width="22.3" height="41.7" transform="translate(449.9 327.7) scale(0.03 0.01)" xlink:href="#Tree"/><use width="22.3" height="41.7" transform="translate(442.9 306.5) scale(1.59 1.59)" xlink:href="#Tree"/><use width="22.3" height="41.7" transform="translate(466 333) scale(0.03 0.01)" xlink:href="#Tree"/><use width="22.3" height="41.7" transform="translate(461.6 305.9) scale(1.59 1.59)" xlink:href="#Tree"/><use width="22.3" height="41.7" transform="translate(484.7 332.4) scale(0.03 0.01)" xlink:href="#Tree"/><use width="22.3" height="41.7" transform="translate(483 306.5) scale(1.59 1.59)" xlink:href="#Tree"/><use width="22.3" height="41.7" transform="translate(506.1 333) scale(0.03 0.01)" xlink:href="#Tree"/><use width="22.3" height="41.7" transform="translate(497.6 308.1) scale(1.59 1.59)" xlink:href="#Tree"/><use width="22.3" height="41.7" transform="translate(520.8 334.5) scale(0.03 0.01)" xlink:href="#Tree"/><path class="cls-27" d="M538.7,370.1l-.5-.8-.6.6-1.9-2.1-2.5-1.1,2.9,1.2,2.5-1.8.7-1.8h-1.9v-.7l.8.3.5-1.4.8-1.8h-1.9l-.5-1-.6.8-2.1-2.1-2.5-.9-.2-.4.7-.4,3.1,1.7,3-1.7.6-1.8-1.7-.2-.5-1-.6.9-2-2.2-2-.7.3-.5,3.1,1.4,3.1-1,.3-1.5-1.6.4-.5-1-.6,1-1.3-1.3h.3l2.8-1.3.4-1.4-1.6.5-.5-.7-.6.8-2.1-2-2.5-.4-2-1.3-2.4-.4,1.1-.2,1-.5.5,1.1.8-.6,2.6,1.3,2.6-1.3.5-1.5h-1.4l-.5-.8-.5.8-1.8-1.6-2.1-.6-.4-.7.7-.6,2.5,1.7,2.2-1.8.7-1.4-1.4-.4-.5-.6-.6.8-1.6-2.1-2.1-.7-.4-1.2-.7-.8,1.3,1.1.9-1.4.6-.8-1.1.2-.3-.8-.4.6-1-1.2h-.3l.5-.4,1.9,1.5,1.8-1.5.5-1.4-1.1-.5-.4-.6-.4.6v-.8l.4.2.6-.9.4-.9h-1l-.3-1-.4.8-1.1-1.7h-1.8l1.1-.3.3-1.1.6-1h-1l-.3-.9-.4.8-.6-1.8h-1.5l-.8-1.9-1.6-.7v-.9l-.8-.6-.6-3L520,313l-1,.9-.3,1.4H518l.2,1.2-.9-.3.4.9-.6-.3.4.5-.7-.2.2,1h-.7l.5,1h-1.3l-.7,1.1-.9.8.7.9.2.6-.6-.2-.6.9-1.1.3,1,.5.8,1.1,1-.7-.2.6.4.6-1.4.4-1,1.3-1,.8.8,1.3h-.4v.7l-1,.5.9.6,1,1.2.4-.4.3,1h-1l.6,1.3h-1.8l-1.2,1.5-1.4,1,1.2,1.4,1.3.7,1.3-.5-.3.4.4.8-1.8-.4-1.3,1.4-1.5.5,1.4.7,1.3,1.1.8-.3v.8h-.7l.2,1h-1.9l-1.7,1.1-1.6.4,1.5.7,2,1.2h.1l-1.6,1.1-1.4.5,1.4.7,1.8,1,2-.6-.6.8.4.9-2,.4-1.7,1.3-1.5,1.1,1.3,1.4,2,1.1,2.1-.6-.4.5.4.8h-2.1l-1.7,1.3-1.6,1.2,1.6,1.3v.2h0v.8l-1.5,1.2,1.3,1.5,1.1,1,1.3-.6-.5.3.6.7h-2.3l-1.9,1.4-1.6,1.4,1.5,1.4,3.3,1.3,3.2-1.3,1,.5.7-.9,1.7.4,1.2-1.5.4.6v-.7l1.1.6,1.2-.7v1.5l.9-.5.9.4c-.1.8-.1,1.6-.2,2.4s-.2,2-.2,3.3h3.2c0-1.2.1-2.5.2-3.7v-1.2h1.4l.7.9.4-1h1.9l1.8-.8.7,1,1-.4,1.7.9,1.8.8,1.7-.9,1.6-1,.7-1.9Zm-28.3-22.2,1.8-.6-.3.3.4.8Zm16.6-18.8.3-.7.2.7h-.5Zm3.8,27.9v-.9l.3.6Z"/><use width="22.3" height="41.7" transform="translate(528.1 337.5) scale(0.03 0.01)" xlink:href="#Tree"/><use width="22.3" height="41.7" transform="translate(516.3 305.9) scale(1.59 1.59)" xlink:href="#Tree"/><use width="22.3" height="41.7" transform="translate(539.4 332.4) scale(0.03 0.01)" xlink:href="#Tree"/><use width="22.3" height="41.7" transform="translate(531 308.1) scale(1.59 1.59)" xlink:href="#Tree"/><use width="22.3" height="41.7" transform="translate(554.1 334.5) scale(0.03 0.01)" xlink:href="#Tree"/><use width="22.3" height="41.7" transform="translate(544.3 311.1) scale(1.59 1.59)" xlink:href="#Tree"/><use width="22.3" height="41.7" transform="translate(567.4 337.5) scale(0.03 0.01)" xlink:href="#Tree"/><use width="22.3" height="41.7" transform="translate(553.6 308.1) scale(1.59 1.59)" xlink:href="#Tree"/><use width="22.3" height="41.7" transform="translate(576.7 334.5) scale(0.03 0.01)" xlink:href="#Tree"/><use width="22.3" height="41.7" transform="translate(66.7 295.4) scale(1.64 1.64)" xlink:href="#Tree"/><use width="22.3" height="41.7" transform="translate(90.5 322.6) scale(0.03 0.01)" xlink:href="#Tree"/><use width="22.3" height="41.7" transform="translate(74.9 298.2) scale(1.64 1.64)" xlink:href="#Tree"/><use width="22.3" height="41.7" transform="translate(98.7 325.5) scale(0.03 0.01)" xlink:href="#Tree"/><use width="22.3" height="41.7" transform="translate(79.9 299.2) scale(1.64 1.64)" xlink:href="#Tree"/><use width="22.3" height="41.7" transform="translate(103.7 326.5) scale(0.03 0.01)" xlink:href="#Tree"/><use width="22.3" height="41.7" transform="translate(53.9 297.5) scale(1.64 1.64)" xlink:href="#Tree"/><use width="22.3" height="41.7" transform="translate(77.7 324.7) scale(0.03 0.01)" xlink:href="#Tree"/><use width="22.3" height="41.7" transform="translate(97.7 300.2) scale(1.64 1.64)" xlink:href="#Tree"/><use width="22.3" height="41.7" transform="translate(121.6 327.5) scale(0.03 0.01)" xlink:href="#Tree"/><use width="22.3" height="41.7" transform="translate(114.3 305.6) scale(1.64 1.64)" xlink:href="#Tree"/><use width="22.3" height="41.7" transform="translate(138.1 332.8) scale(0.03 0.01)" xlink:href="#Tree"/><use width="22.3" height="41.7" transform="translate(133.6 305) scale(1.64 1.64)" xlink:href="#Tree"/><use width="22.3" height="41.7" transform="translate(157.4 332.3) scale(0.03 0.01)" xlink:href="#Tree"/><use width="22.3" height="41.7" transform="translate(155.6 305.6) scale(1.64 1.64)" xlink:href="#Tree"/><use width="22.3" height="41.7" transform="translate(179.5 332.8) scale(0.03 0.01)" xlink:href="#Tree"/><use width="22.3" height="41.7" transform="translate(170.8 307.2) scale(1.64 1.64)" xlink:href="#Tree"/><use width="22.3" height="41.7" transform="translate(194.6 334.4) scale(0.03 0.01)" xlink:href="#Tree"/><use width="22.3" height="41.7" transform="translate(178.4 310.3) scale(1.64 1.64)" xlink:href="#Tree"/><use width="22.3" height="41.7" transform="translate(202.2 337.6) scale(0.03 0.01)" xlink:href="#Tree"/><use width="22.3" height="41.7" transform="translate(190 305) scale(1.64 1.64)" xlink:href="#Tree"/><use width="22.3" height="41.7" transform="translate(213.8 332.3) scale(0.03 0.01)" xlink:href="#Tree"/><use width="22.3" height="41.7" transform="translate(205.2 307.2) scale(1.64 1.64)" xlink:href="#Tree"/><use width="22.3" height="41.7" transform="translate(229 334.4) scale(0.03 0.01)" xlink:href="#Tree"/><use width="22.3" height="41.7" transform="translate(218.9 310.3) scale(1.64 1.64)" xlink:href="#Tree"/><use width="22.3" height="41.7" transform="translate(242.8 337.6) scale(0.03 0.01)" xlink:href="#Tree"/><use width="22.3" height="41.7" transform="translate(228.5 307.2) scale(1.64 1.64)" xlink:href="#Tree"/><use width="22.3" height="41.7" transform="translate(252.3 334.4) scale(0.03 0.01)" xlink:href="#Tree"/><use width="22.3" height="41.7" transform="translate(245.3 299) scale(1.64 1.64)" xlink:href="#Tree"/><use width="22.3" height="41.7" transform="translate(269.2 326.3) scale(0.03 0.01)" xlink:href="#Tree"/><use width="22.3" height="41.7" transform="translate(249.1 310.8) scale(1.64 1.64)" xlink:href="#Tree"/><use width="22.3" height="41.7" transform="translate(272.9 338.1) scale(0.03 0.01)" xlink:href="#Tree"/><use width="22.3" height="41.7" transform="translate(262.5 313.3) scale(1.64 1.64)" xlink:href="#Tree"/><use width="22.3" height="41.7" transform="translate(286.4 340.6) scale(0.03 0.01)" xlink:href="#Tree"/><use width="22.3" height="41.7" transform="translate(283.7 303.2) scale(1.64 1.64)" xlink:href="#Tree"/><use width="22.3" height="41.7" transform="translate(307.5 330.5) scale(0.03 0.01)" xlink:href="#Tree"/><use width="22.3" height="41.7" transform="translate(292.9 308.5) scale(1.64 1.64)" xlink:href="#Tree"/><use width="22.3" height="41.7" transform="translate(316.7 335.8) scale(0.03 0.01)" xlink:href="#Tree"/><use width="22.3" height="41.7" transform="translate(304.4 308.1) scale(1.64 1.64)" xlink:href="#Tree"/><use width="22.3" height="41.7" transform="translate(328.2 335.4) scale(0.03 0.01)" xlink:href="#Tree"/><use width="22.3" height="41.7" transform="translate(312.8 301.2) scale(1.64 1.64)" xlink:href="#Tree"/><use width="22.3" height="41.7" transform="translate(336.6 328.4) scale(0.03 0.01)" xlink:href="#Tree"/><use width="22.3" height="41.7" transform="translate(316 297) scale(1.64 1.64)" xlink:href="#Tree"/><use width="22.3" height="41.7" transform="translate(339.8 324.3) scale(0.03 0.01)" xlink:href="#Tree"/><use width="22.3" height="41.7" transform="translate(324.6 306.6) scale(1.64 1.64)" xlink:href="#Tree"/><use width="22.3" height="41.7" transform="translate(348.5 333.8) scale(0.03 0.01)" xlink:href="#Tree"/><use width="22.3" height="41.7" transform="translate(339.2 308.7) scale(1.64 1.64)" xlink:href="#Tree"/><use width="22.3" height="41.7" transform="translate(363 336) scale(0.03 0.01)" xlink:href="#Tree"/><use width="22.3" height="41.7" transform="translate(344.9 305.4) scale(1.64 1.64)" xlink:href="#Tree"/><use width="22.3" height="41.7" transform="translate(368.8 332.6) scale(0.03 0.01)" xlink:href="#Tree"/><use width="22.3" height="41.7" transform="translate(353.7 304.4) scale(1.64 1.64)" xlink:href="#Tree"/><use width="22.3" height="41.7" transform="translate(377.5 331.7) scale(0.03 0.01)" xlink:href="#Tree"/><use width="22.3" height="41.7" transform="translate(361.9 290.6) scale(1.64 1.64)" xlink:href="#Tree"/><use width="22.3" height="41.7" transform="translate(385.7 317.9) scale(0.03 0.01)" xlink:href="#Tree"/></g><rect id="water" class="cls-28" y="354.7" width="800" height="95.29"/><g id="right_island" data-name="right island"><path class="cls-29" d="M341.5,398.3a1374.3,1374.3,0,0,0-146.8,18.9l2-.9C257.1,388.5,323.5,392.8,341.5,398.3Z"/><path class="cls-30" d="M102.4,450c76.1-44.5,228.6-50.9,228.6-50.9l-31.6,11.5L133.2,450Z"/><path class="cls-31" d="M299.3,410.6S206.8,450,196.2,450h-63C204.3,431.4,299.3,410.6,299.3,410.6Z"/><path class="cls-32" d="M800,296c-185.4,22-367.3,60.2-540.1,129.9-21.9,8.5-42.8,18.9-65,24.1H800Z"/><path class="cls-33" d="M743.5,381a436.7,436.7,0,0,0-91.9,24.6l.8-.6c11.4-6.8,24-29,38.6-31.7C720.7,368,741.4,380,743.5,381Z"/><path class="cls-34" d="M593.2,450q7-10.8,14.4-21.5A83.9,83.9,0,0,1,625.8,418c9.1-3.7,16.9-6.1,25.8-12.4A436.7,436.7,0,0,1,743.5,381a40.8,40.8,0,0,1,8.8,6.1c-51.5,12-95.1,38.1-139.8,62.9Z"/><path class="cls-35" d="M752.3,387.1c4.2,3.7,7.5,8.1,11.1,12.6-35.5,7.3-73.8,27.7-111.2,50.3H612.5C657.2,425.2,700.8,399.1,752.3,387.1Z"/><path class="cls-36" d="M791.5,425.7A60.9,60.9,0,0,1,800,434a141.8,141.8,0,0,1-.6,16H678.6C717.8,430.8,757.4,422.6,791.5,425.7Z"/><path class="cls-37" d="M763.4,399.7c2.2,2.8,4.4,5.7,7,8.5,5.9,6.5,14,11.7,21.1,17.5-34.1-3.2-73.7,5-112.9,24.3H652.1C689.6,427.4,727.9,407,763.4,399.7Z"/></g><g id="people"><path id="shadow" class="cls-38" d="M527.4,381.4c-2,.7-4,4.3-5.6,5.8s-2.7.9-2,2.9,6,3.7,9.7,3.3l15.1-1.7c.5,2.4,3.9,2.6,6.3,2.2l20-3.5c4.1-.7,9.2-6.3,12.6-8.6s5.9-2.5,4.6-6.4-10.9-4.7-15.8-4.3a86.5,86.5,0,0,1-10,.5c-3.5,0-5.4-.4-9,.7C544.5,375.1,536,378.3,527.4,381.4Z"/><g id="woman"><rect class="cls-39" x="529.1" y="309.7" width="2.9" height="5.57" rx="0.1" ry="0.1"/><path class="cls-40" d="M529.5,317.9a7,7,0,0,1-1.2-2.2,4.5,4.5,0,0,1,.4-2c-.1-.1.2-1.4.3-1.4a10.5,10.5,0,0,0,.5,3c.6-.1,1.3-1,1.6-1.1s-1,1.4-.2,3"/><path class="cls-41" d="M556.1,378.5c.4-4.3-.2-16.2-.2-16.2l-2.7-17.7,9-.3-2.4,17.1c2.3,2.9-.4,14-1.4,16.9Z"/><path class="cls-41" d="M549.9,380.6c.2-4.3-1-16.2-1-16.2l-3.6-22.3,9.1,4.1-1.6,17.1c2.4,2.7.2,13.9-.6,16.9Z"/><path class="cls-40" d="M547.2,309c-.6.2-.6,1.9-1.6,3.3,1-.1.6,2.3.8,2.6s1.1-.6,1.3,2.5C550.7,316.9,547.3,309.1,547.2,309Z"/><path class="cls-41" d="M546.5,307c1-4,6.5-4.7,8.2-.9a16,16,0,0,1,.6,2.8,31.9,31.9,0,0,0,1.5,3.4l-8.9,4.6c-.4-1.8.3-3.5-.2-5.3S546,308.8,546.5,307Z"/><path class="cls-42" d="M556,312.4l-1.6.3a17.9,17.9,0,0,0-9,5.3l-.6.7a6.2,6.2,0,0,0-1.2,2.1,2.4,2.4,0,0,0,.3,2.2h0a6.9,6.9,0,0,1,3.8-4.3,11,11,0,0,1,5-.6,14.7,14.7,0,0,0,5-.3c-.2-1.5.7-2.4,1.2-3.6V314C559.5,312.3,558,312,556,312.4Z"/><path class="cls-43" d="M546.8,319c-2.5,1.1-5.1,3-7.7,3.4-.4-1.6-7-7.4-8.9-6.1s-1.1,3.1-.3,5,5.4,6,7.8,8.4a35.9,35.9,0,0,0,11.2-2.8"/><path class="cls-41" d="M552.1,380.2c.1,1.2.5,2.3-.2,3.2s-3.7-.4-5.1.2-3.3.6-3.1-.4,5.1-1.7,6.9-3.2A1.1,1.1,0,0,1,552.1,380.2Z"/><path class="cls-41" d="M558.4,378.1c.1,1.2.5,2.3-.2,3.2s-3.7-.4-5.1.2-3.3.6-3.1-.4,5.1-1.7,6.9-3.2A1.1,1.1,0,0,1,558.4,378.1Z"/><path class="cls-43" d="M554.8,341.2c1.6-1.1,10.8-24.5-2.2-24.9-5.5,0-7.9,4.4-8.3,11.8s-1.6,11.1,0,12C541.6,343.5,556.5,346.6,554.8,341.2Z"/><g id="backpack"><path class="cls-44" d="M552.4,337.5l-3.5.8-2.3.9-.7.4a1.5,1.5,0,0,0-.3.9,2.8,2.8,0,0,0,0,.4,4.8,4.8,0,0,0,2.2,3.3l1.7,1.2.2.2,2.7,1.9q-.1-1.3-.1-2.6-.1-2.9.1-5.7A4.1,4.1,0,0,0,552.4,337.5Z"/><path class="cls-45" d="M550.9,321.9c4.2,0,1.5,19.2-.1,19.2S549.3,321.9,550.9,321.9Z"/><path class="cls-45" d="M569.2,334.6c-.5,5.8-2.7,8.9-8.8,8.7-8.2-.2-9.3-6.2-9.3-11.6S569.2,329.2,569.2,334.6Z"/><path class="cls-44" d="M568.8,335.5c-.7,5.7-4.5,6.5-8.2,7.4s-8.1-5.3-8.1-10Z"/><path class="cls-46" d="M565.1,323l-14.1-.2,1.5.8c-.7.7-1.5,2.2-1.5,8,.4.3,8.2,6.6,7.6,11.3,3.1.3,7.2-.4,8.7-2.7s2.8-5.8,2.8-7.3S569.8,324.3,565.1,323Z"/><path class="cls-46" d="M551.8,337.2c-2.9,5.2-.4,13.9,6.4,14.1s6.5-1.3,6.5-1.3a6.3,6.3,0,0,1,2.1-3.5,2.7,2.7,0,0,0-1-2.8l-.2-1.6C563.2,343.2,554.8,345.4,551.8,337.2Z"/><path class="cls-45" d="M566.1,348.4a5.1,5.1,0,0,1-1.1,1.3l-.3.2h0a7.3,7.3,0,0,1,.9-2.3A1.7,1.7,0,0,1,566.1,348.4Z"/><path class="cls-45" d="M560.3,349.2l.3,2.1a7.2,7.2,0,0,1-3.3-.2Z"/><path class="cls-44" d="M566.8,346.4a7.7,7.7,0,0,1-.7,2,1.7,1.7,0,0,0-.5-.8A4.3,4.3,0,0,1,566.8,346.4Z"/><path class="cls-44" d="M556.9,348.9a10.5,10.5,0,0,1,1.4-2.1C563.7,349.4,554.9,353.1,556.9,348.9Z"/><path class="cls-45" d="M564.7,350c2.1,5-15.6,4.9-12.8-2.6C553.6,351.3,560.5,352.5,564.7,350Z"/><path class="cls-47" d="M550.1,321.4l.4-5.8,16.2.3a3.6,3.6,0,0,1,3.6,3.9,4,4,0,0,1-.4,1.5C563.3,321.4,556.6,321.6,550.1,321.4Z"/><path class="cls-48" d="M563.4,334.6c0-.6-.9-.5-.9.1a32.5,32.5,0,0,1-1.5,11.8c-.2.6.7.7.9.1A33.2,33.2,0,0,0,563.4,334.6Z"/><path class="cls-48" d="M569.2,334.3c0-.6-.9-.5-.9.1a29,29,0,0,1-2.6,11.7.4.4,0,0,0,.8.4A30.2,30.2,0,0,0,569.2,334.3Z"/><path class="cls-49" d="M553.4,321.4a3.8,3.8,0,0,0-2.9-5.8,4.1,4.1,0,0,0-4.1,3.8,3.6,3.6,0,0,0,3.6,3.9l16.2.3a4.1,4.1,0,0,0,3.7-2.3Z"/><path class="cls-45" d="M563,323.5h1.2a4.1,4.1,0,0,0,4.1-3.8,3.6,3.6,0,0,0-3.6-3.9h-1.2a3.6,3.6,0,0,1,3.6,3.9A4.1,4.1,0,0,1,563,323.5Z"/><path class="cls-45" d="M553,323.3h1.2a4.1,4.1,0,0,0,4.1-3.8,3.6,3.6,0,0,0-3.6-3.9h-1.2a3.6,3.6,0,0,1,3.6,3.9A4.1,4.1,0,0,1,553,323.3Z"/></g></g><g id="man"><path class="cls-50" d="M580.1,345.3h0Z"/><g id="body"><path class="cls-40" d="M544.9,318.6c-1.5-.4-3.4,1.3-2.8,2.8,1.6-.5,1.6-1.6,2.4,0"/><path class="cls-51" d="M571,312.8c-4.7,1.7-9.1,2.6-13.8,4.3-3.1-1-10.5-1.1-12.5,1.3-3.9,5.2,9.7,6.8,13.8,6.9s8.9-2.4,13-4.4Z"/><path class="cls-41" d="M582.1,373.5c.1,1.2.5,2.3-.2,3.2s-3.7-.4-5.1.2-3.3.6-3.1-.4,5.1-1.7,6.9-3.2A1.1,1.1,0,0,1,582.1,373.5Z"/><path class="cls-52" d="M579.8,374c.4-4.5-.3-16.9-.3-16.9l-2.8-18.4,9.3-.3-2.5,17.7c2.4,3-.4,14.5-1.5,17.6Z"/><path class="cls-41" d="M575.6,375.8c.1,1.2.5,2.3-.2,3.2s-3.7-.4-5.1.2-3.3.6-3.1-.4,5.1-1.7,6.9-3.2A1.1,1.1,0,0,1,575.6,375.8Z"/><path class="cls-52" d="M573.3,376.1c.2-4.5-1-16.8-1-16.8l-3.8-23.2,9.5,4.3-1.7,17.8c2.5,2.9.2,14.5-.7,17.6Z"/><path class="cls-40" d="M576.7,310.1c.6-3.5-5.6-7.1-6.2-8.3-.9,1.1-1.1,4.4-.8,5.7s.8-.1,1.3.7.2,1.1.2,2.2C573,309.9,575,310.7,576.7,310.1Z"/><path class="cls-51" d="M577.5,336.2c1.6-1.1,10.8-24.5-2.2-24.9-5.5,0-7.9,4.4-8.3,11.8s-1.6,11.1,0,12C564.3,338.4,579.3,341.6,577.5,336.2Z"/><path class="cls-53" d="M570.8,302.5a2.7,2.7,0,0,1-1.5-3.1c.7-2.4,3.7-3.3,5-3.1a3,3,0,0,1,2.7,2.6c1.9-.9,4,3.3-.6,9.1h-2.8C572.6,306.1,571.8,304.2,570.8,302.5Z"/></g><g id="backpack-2" data-name="backpack"><path class="cls-54" d="M575.1,331.8l-3.5.8-2.3.9-.7.4a1.5,1.5,0,0,0-.3.9,2.8,2.8,0,0,0,0,.4,4.8,4.8,0,0,0,2.2,3.3l1.7,1.2.2.2,2.7,1.9q-.1-1.3-.1-2.6-.1-2.9.1-5.7A4.1,4.1,0,0,0,575.1,331.8Z"/><path class="cls-55" d="M573.6,316.1c4.2,0,1.5,19.2-.1,19.2S572,316.1,573.6,316.1Z"/><path class="cls-55" d="M591.8,328.9c-.5,5.8-2.7,8.9-8.8,8.7-8.2-.2-9.3-6.2-9.3-11.6S591.8,323.5,591.8,328.9Z"/><path class="cls-54" d="M591.4,329.8c-.7,5.7-4.5,6.5-8.2,7.4s-8.1-5.3-8.1-10Z"/><path class="cls-56" d="M587.7,317.3l-14.1-.2,1.5.8c-.7.7-1.5,2.2-1.5,8,.4.3,8.2,6.6,7.6,11.3,3.1.3,7.2-.4,8.7-2.7s2.8-5.8,2.8-7.3S592.4,318.5,587.7,317.3Z"/><path class="cls-56" d="M574.4,331.4c-2.9,5.2-.4,13.9,6.4,14.1s6.5-1.3,6.5-1.3a6.3,6.3,0,0,1,2.1-3.5,2.7,2.7,0,0,0-1-2.8l-.2-1.6C585.9,337.4,577.4,339.7,574.4,331.4Z"/><path class="cls-55" d="M588.7,342.6a5.1,5.1,0,0,1-1.1,1.3l-.3.2h0a7.3,7.3,0,0,1,.9-2.3A1.7,1.7,0,0,1,588.7,342.6Z"/><path class="cls-55" d="M582.9,343.4l.3,2.1a7.2,7.2,0,0,1-3.3-.2Z"/><path class="cls-54" d="M589.4,340.7a7.7,7.7,0,0,1-.7,2,1.7,1.7,0,0,0-.5-.8A4.3,4.3,0,0,1,589.4,340.7Z"/><path class="cls-54" d="M579.5,343.2a10.5,10.5,0,0,1,1.4-2.1C586.3,343.6,577.5,347.4,579.5,343.2Z"/><path class="cls-50" d="M587.3,344.2c2.1,5-15.6,4.9-12.8-2.6C576.3,345.5,583.2,346.7,587.3,344.2Z"/><path class="cls-57" d="M572.7,315.6l.4-5.8,16.2.3a3.6,3.6,0,0,1,3.6,3.9,4,4,0,0,1-.4,1.5C585.9,315.6,579.3,315.8,572.7,315.6Z"/><path class="cls-50" d="M586,328.8c0-.6-.9-.5-.9.1a32.5,32.5,0,0,1-1.5,11.8c-.2.6.7.7.9.1A33.2,33.2,0,0,0,586,328.8Z"/><path class="cls-50" d="M591.8,328.5c0-.6-.9-.5-.9.1a29,29,0,0,1-2.6,11.7.4.4,0,0,0,.8.4A30.2,30.2,0,0,0,591.8,328.5Z"/><path class="cls-58" d="M576,315.7a3.8,3.8,0,0,0-2.9-5.8,4.1,4.1,0,0,0-4.1,3.8,3.6,3.6,0,0,0,3.6,3.9l16.2.3a4.1,4.1,0,0,0,3.7-2.3Z"/><path class="cls-50" d="M585.6,317.7h1.2A4.1,4.1,0,0,0,591,314a3.6,3.6,0,0,0-3.6-3.9h-1.2a3.6,3.6,0,0,1,3.6,3.9A4.1,4.1,0,0,1,585.6,317.7Z"/><path class="cls-50" d="M575.7,317.6h1.2a4.1,4.1,0,0,0,4.1-3.8,3.6,3.6,0,0,0-3.6-3.9h-1.2a3.6,3.6,0,0,1,3.6,3.9A4.1,4.1,0,0,1,575.7,317.6Z"/></g></g></g><g id="left_island" data-name="left island"><path class="cls-59" d="M0,366.7V316.5c107,9.6,280.9,26,385,50.2Z"/><path class="cls-60" d="M0,366.7v50.2c107-9.6,280.9-26,385-50.2Z"/></g></g></g></svg>