<?xml version="1.0" encoding="utf-8"?>
<!-- Generator: Adobe Illustrator 23.0.3, SVG Export Plug-In . SVG Version: 6.00 Build 0)  -->
<svg version="1.1" id="Layer_2" xmlns="http://www.w3.org/2000/svg" xmlns:xlink="http://www.w3.org/1999/xlink" x="0px" y="0px"
	 viewBox="0 0 512 461" style="enable-background:new 0 0 512 461;" xml:space="preserve">
<style type="text/css">
	.st0{fill:none;stroke:#000000;stroke-width:18;stroke-miterlimit:10;}
</style>
<path d="M464,224.5H338.1c-13.1,0-13.1,17,0,17H464C478.7,241.5,478.7,224.5,464,224.5z"/>
<path d="M504,290.3v-60.7c0-16.9-10.2-32.3-26-39V42.7C478,19.1,458.6,0,434.7,0H77.3C53.4,0,34,19.1,34,42.7v147.9
	c-15.8,6.8-26,22.1-26,39v60.7c-4.4,0-8,3.8-8,8.5v153.6c0,4.7,3.8,8.5,8.5,8.5h51.4c4.8,0,8.5-3.9,8.5-8.7
	c0.1-9.4,7.6-16.9,16.9-17c4.8,0,8.7-3.8,8.7-8.5V401h324v25.8c0,4.8,3.9,8.5,8.7,8.5c9.3,0.1,16.8,7.7,16.9,17
	c0,4.8,3.8,8.7,8.5,8.7h51.4c4.7,0,8.5-3.8,8.5-8.5V298.9C512,294.2,508.4,290.3,504,290.3z M51,186V42.6C51,28.5,62.5,17,76.6,17
	h358.8c14.1,0,25.6,11.5,25.6,25.6V186 M50.6,204h409.8c14.1,0,25.6,11.5,25.6,25.6V290H25v-60.4C25,215.5,36.5,204,50.6,204z
	 M77,418.3c-12.1,3.2-21.5,12.6-24.6,24.7H17v-43h60V418.3z M495,443h-35.4c-3.1-12.1-12.6-21.6-24.6-24.7V400h60V443z M495,384H17
	v-77h478V384z"/>
<path d="M401.5,51.5h17c4.7,0,8.5,3.8,8.5,8.5v17c0,14.1,17,14.1,17,0V60.1c0-14.1-11.5-25.6-25.6-25.6h-16.9
	C390.5,34.5,390.5,51.5,401.5,51.5z"/>
<ellipse class="st0" cx="160.4" cy="156.5" rx="68.9" ry="35"/>
<ellipse class="st0" cx="351.6" cy="156.5" rx="68.9" ry="35"/>
</svg>
