<?xml version="1.0" encoding="utf-8"?>
<!-- Generator: Adobe Illustrator 23.0.3, SVG Export Plug-In . SVG Version: 6.00 Build 0)  -->
<svg version="1.1" id="Layer_1" xmlns="http://www.w3.org/2000/svg" xmlns:xlink="http://www.w3.org/1999/xlink" x="0px" y="0px"
	 viewBox="0 0 512 512" style="enable-background:new 0 0 512 512;" xml:space="preserve">
<path d="M457,310.1c0-64.1-56.6-117.7-120-117.7h-40v-82.4c0-29.4-11.4-57-32.2-77.7C244,11.4,216.4,0,187,0
	C126.4,0,77,49.3,77,109.9v300.8l-20.7,89c-0.7,3,0,6.1,1.9,8.5c1.9,2.4,4.8,3.8,7.8,3.8h101c3,0,5.9-1.4,7.8-3.7
	c1.9-2.4,2.6-5.5,2-8.4L157,410.8V109.9c0-16.5,13.5-30,30-30c8,0,15.5,3.1,21.2,8.8c5.7,5.7,8.8,13.2,8.8,21.2v290.7
	c-12.8,12.2-20,29-20,46.8c0,35.6,28.9,64.6,64.5,64.6c17.3,0,33.8-6.9,45.9-19.2H395v9.2c0,5.5,4.5,10,10,10s10-4.5,10-10v-9.2h32
	c5.5,0,10-4.5,10-10V312.3C457,311.6,457,310.8,457,310.1C457,309.6,457,310.8,457,310.1C457,245.9,457,310.8,457,310.1z M347,212.8
	c47.3,3.7,84.1,43.7,89.5,89.7H397c-27.6,0-50-22.4-50-50V212.8z M78.6,492l16.3-70.2h44l15.6,70.2H78.6z M187,59.9
	c-27.6,0-50,22.4-50,50v291.9H97V109.9C97,60.3,137.4,20,187,20c24.1,0,46.6,9.4,63.6,26.3c17,17,26.4,39.6,26.4,63.6v81.9h-40
	v-81.9c0-13.4-5.2-25.9-14.6-35.3C212.9,65.1,200.4,59.9,187,59.9z M295.4,476.3c-8.5,9.9-20.8,15.7-33.9,15.7
	c-24.5,0-44.5-20-44.5-44.6c0-13.4,6-26,16.4-34.5c7.9-6.5,17.9-10.1,28.1-10.1c24.5,0,44.5,20,44.5,44.6c0,13.5-6.6,21.4-13.3,32
	c1.2-1.9,3-3.6,4.4-5.2C296.6,474.9,296,475.6,295.4,476.3C286.9,486.3,302.2,468.3,295.4,476.3z M437,472.8h-22v-51
	c0-5.5-4.5-10-10-10s-10,4.5-10,10v51h-74.2c3.4-8,5.2-16.7,5.2-25.4c0-35.6-28.9-64.6-64.5-64.6c-8.5,0-16.6,1.9-24.5,4.8V212.3h90
	v40.2c0,38.6,31.4,70,70,70h40V472.8z"/>
</svg>
