<?xml version="1.0" encoding="utf-8"?>
<!-- Generator: Adobe Illustrator 23.0.3, SVG Export Plug-In . SVG Version: 6.00 Build 0)  -->
<svg version="1.1" id="Layer_1" xmlns="http://www.w3.org/2000/svg" xmlns:xlink="http://www.w3.org/1999/xlink" x="0px" y="0px"
	 viewBox="0 0 512 512" style="enable-background:new 0 0 512 512;" xml:space="preserve">
<path d="M256,512c-68.4,0-132.7-26.6-181-75S0,324.4,0,256S26.6,123.3,75,75S187.6,0,256,0s132.7,26.6,181,75s75,112.6,75,181
	s-26.6,132.7-75,181S324.4,512,256,512z M256,20c-63,0-122.3,24.5-166.9,69.1S20,193,20,256s24.5,122.3,69.1,166.9S193,492,256,492
	s122.3-24.5,166.9-69.1S492,319,492,256s-24.5-122.3-69.1-166.9S319,20,256,20z"/>
<path d="M256,462c-113.6,0-206-92.4-206-206S142.4,50,256,50s206,92.4,206,206S369.6,462,256,462z M256,70C153.4,70,70,153.4,70,256
	s83.4,186,186,186s186-83.4,186-186S358.6,70,256,70z"/>
<path d="M224,141c-5.5,0-10,4.5-10,10v70c0,5.5-4.5,10-10,10h-10v-80c0-5.5-4.5-10-10-10s-10,4.5-10,10v80h-10c-5.5,0-10-4.5-10-10
	v-70c0-5.5-4.5-10-10-10s-10,4.5-10,10v70c0,16.5,13.5,30,30,30h10v10h-10c-5.5,0-10,4.5-10,10v70c0,16.5,13.5,30,30,30
	s30-13.5,30-30v-70c0-5.5-4.5-10-10-10h-10v-10h10c16.5,0,30-13.5,30-30v-70C234,145.5,229.5,141,224,141z M194,341
	c0,5.5-4.5,10-10,10s-10-4.5-10-10v-60h20V341z"/>
<path d="M346,141h-20c-27.6,0-50,22.4-50,50v80c0,5.5,4.5,10,10,10h10v60c0,16.5,13.5,30,30,30s30-13.5,30-30V151
	C356,145.5,351.5,141,346,141z M296,191c0-16.5,13.5-30,30-30h10v100h-40V191z M336,341c0,5.5-4.5,10-10,10s-10-4.5-10-10v-60h20
	V341z"/>
</svg>
