<svg height="511pt" viewBox="0 -81 511.99987 511" width="511pt" xmlns="http://www.w3.org/2000/svg"><path d="m503.46875 254.625v-66.390625c0-3.847656-2.578125-7.222656-6.289062-8.234375l-91.378907-24.917969-55.933593-63.921875v-5.324218c0-18.851563-15.28125-34.136719-34.136719-34.136719h-53.589844l-15.121094-45.363281c-1.160156-3.484376-4.417969-5.832032-8.089843-5.835938h-34.132813c-3.671875.003906-6.929687 2.351562-8.089844 5.835938l-15.121093 45.363281h-62.121094c-18.851563 0-34.136719 15.285156-34.136719 34.136719v6.519531l-31.152344 62.292969c-21.183593 2.746093-37.054687 20.761718-37.113281 42.121093v52.769531c-13.304688 4.6875-20.292969 19.269532-15.605469 32.574219 3.605469 10.238281 13.285157 17.078125 24.140625 17.054688h26.28125c4.683594 32.613281 34.917969 55.257812 67.53125 50.574219 26.214844-3.765626 46.808594-24.359376 50.570313-50.574219h180.609375c4.667968 30.234375 32.960937 50.960937 63.195312 46.292969 23.871094-3.6875 42.605469-22.417969 46.289063-46.292969h26.328125c14.085937.054687 25.546875-11.324219 25.597656-25.410157.027344-7.304687-3.078125-14.273437-8.53125-19.132812zm-62.746094-6.65625c-20.507812-17.066406-50.269531-17.066406-70.777344 0h-217.296874c-23.15625-22.753906-60.277344-22.753906-83.4375 0h-35.082032v-34.132812h34.132813c14.140625 0 25.601562-11.460938 25.601562-25.601563v-17.066406h306.058594l43.8125 11.945312v22.1875c0 14.140625 11.460937 25.601563 25.601563 25.601563h17.066406v17.066406zm-90.132812 34.132812h-180.609375c-.847657-5.914062-2.589844-11.671874-5.160157-17.066406h191.359376c-2.785157 5.34375-4.671876 11.109375-5.589844 17.066406zm135.8125-68.265624h-17.066406c-4.714844 0-8.535157-3.820313-8.535157-8.535157v-17.535156l25.601563 6.988281zm-104.109375-59.734376h-134.828125v-51.199218h89.992187zm-171.34375-136.535156h21.828125l11.386718 34.132813h-44.597656zm-91.484375 51.199219h196.265625c9.425781 0 17.070312 7.640625 17.070312 17.066406h-93.871093c-4.710938 0-8.53125 3.824219-8.53125 8.535157v59.734374h-17.066407v-59.734374c0-4.710938-3.820312-8.535157-8.535156-8.535157h-102.398437c0-9.425781 7.640624-17.066406 17.066406-17.066406zm-20.328125 34.136719h97.128906v51.199218h-122.730469zm-39.40625 68.265625h17.066406v17.066406c0 4.714844-3.820313 8.535156-8.535156 8.535156h-34.132813c0-14.140625 11.460938-25.601562 25.601563-25.601562zm-42.667969 102.402343c0-4.714843 3.820312-8.535156 8.535156-8.535156h31.445313c-2.574219 5.394532-4.316407 11.152344-5.164063 17.066406h-26.28125c-4.714844 0-8.535156-3.820312-8.535156-8.53125zm93.867188 59.734376c-23.5625.136718-42.777344-18.855469-42.917969-42.417969-.136719-23.5625 18.855469-42.777344 42.417969-42.917969 12.324218-.070312 24.078124 5.191406 32.238281 14.429688.050781.050781.09375.121093.144531.171874 6.910156 7.71875 10.75 17.703126 10.785156 28.066407-.027344 23.550781-19.113281 42.636719-42.667968 42.667969zm294.402343-4.269532c-21.207031 0-38.398437-17.191406-38.398437-38.398437s17.191406-38.402344 38.398437-38.402344c21.210938 0 38.402344 17.195313 38.402344 38.402344-.023437 21.199219-17.203125 38.375-38.402344 38.398437zm81.070313-46.933594h-26.328125c-.914063-5.957031-2.804688-11.722656-5.589844-17.066406h31.917969c4.710937 0 8.53125 3.820313 8.53125 8.535156 0 4.710938-3.820313 8.53125-8.53125 8.53125zm0 0"/><path d="m110.929688 265.035156c-14.136719 0-25.601563 11.460938-25.601563 25.601563 0 14.136719 11.464844 25.597656 25.601563 25.597656 14.140624 0 25.601562-11.460937 25.601562-25.597656 0-14.140625-11.460938-25.601563-25.601562-25.601563zm0 34.132813c-4.710938 0-8.53125-3.820313-8.53125-8.53125 0-4.714844 3.820312-8.535157 8.53125-8.535157 4.714843 0 8.535156 3.820313 8.535156 8.535157 0 4.710937-3.820313 8.53125-8.535156 8.53125zm0 0"/><path d="m405.332031 265.035156c-14.136719 0-25.597656 11.460938-25.597656 25.601563 0 14.136719 11.460937 25.597656 25.597656 25.597656 14.140625 0 25.601563-11.460937 25.601563-25.597656 0-14.140625-11.460938-25.601563-25.601563-25.601563zm0 34.132813c-4.710937 0-8.53125-3.820313-8.53125-8.53125 0-4.714844 3.820313-8.535157 8.53125-8.535157 4.714844 0 8.535157 3.820313 8.535157 8.535157 0 4.710937-3.820313 8.53125-8.535157 8.53125zm0 0"/><path d="m153.597656 196.769531h17.066406v17.066407h-17.066406zm0 0"/><path d="m170.664062 213.835938h17.066407v17.066406h-17.066407zm0 0"/><path d="m204.796875 213.835938h17.066406v17.066406h-17.066406zm0 0"/><path d="m187.730469 196.769531h17.066406v17.066407h-17.066406zm0 0"/><path d="m221.863281 196.769531h17.066407v17.066407h-17.066407zm0 0"/><path d="m238.929688 213.835938h17.070312v17.066406h-17.070312zm0 0"/><path d="m256 196.769531h17.066406v17.066407h-17.066406zm0 0"/><path d="m273.066406 213.835938h17.066406v17.066406h-17.066406zm0 0"/><path d="m290.132812 196.769531h17.066407v17.066407h-17.066407zm0 0"/><path d="m307.199219 213.835938h17.066406v17.066406h-17.066406zm0 0"/><path d="m324.265625 196.769531h17.066406v17.066407h-17.066406zm0 0"/></svg>