<svg height="512pt" viewBox="-65 0 512 512" width="512pt" xmlns="http://www.w3.org/2000/svg"><path d="m159.851562 495.691406-8.859374-365.210937c0-.011719 0-.019531 0-.019531l-.988282-40.699219c-.183594-5.347657-4.515625-9.761719-10-9.761719h-21.171875l-8.910156-71.238281c-.621094-5.011719-4.878906-8.761719-9.917969-8.761719h-40c-5.042968 0-9.300781 3.75-9.921875 8.761719l-8.898437 71.238281c-10.789063 0-29.875-4.082031-31.207032 10.800781-1.167968 13.027344-.964843 26.597657-.964843 39.679688l-8.859375 365.210937-.14843775 6.058594c-.06250005 2.691406.95703175 5.300781 2.83984375 7.230469 1.878906 1.929687 4.457031 3.019531 7.160156 3.019531h140c2.699219 0 5.277344-1.089844 7.160156-3.019531 1.878907-1.929688 2.898438-4.539063 2.839844-7.230469zm-91.019531-475.691406h22.339844l7.5 60h-37.339844zm-39.078125 80h100.5l.5 20h-101.5zm-.960937 40h102.417969l7.570312 312h-117.558594zm-8.539063 352 .5-20h118.5l.5 20zm0 0"/><path d="m80.003906 286c-5.523437 0-10-4.476562-10-10v-80c0-5.523438 4.476563-10 10-10 5.523438 0 10 4.476562 10 10v80c0 5.523438-4.476562 10-10 10zm0 0"/><path d="m80.023438 326c-5.523438 0-10.007813-4.476562-10.007813-10s4.472656-10 9.996094-10h.011719c5.523437 0 10 4.476562 10 10s-4.476563 10-10 10zm0 0"/><path d="m374.332031 74.101562c4.769531-5.320312 7.671875-12.363281 7.671875-20.082031 0-16.550781-13.460937-30-30-30h-91.261718c-2.78125-13.691406-14.757813-24.019531-29.070313-24.019531-16.359375 0-29.667969 13.5-29.667969 30.078125v160.570313c0 .222656.007813.441406.019532.671874-.089844 8.140626 2.949218 15.757813 8.570312 21.507813l42.558594 43.441406v225.652344c0 16.578125 13.308594 30.078125 29.671875 30.078125 16.359375 0 29.667969-13.488281 29.667969-30.078125v-237.050781c0-1.339844-.101563-2.730469-.320313-4.242188-.6875-6.828125-3.679687-13.25-8.4375-18.097656l-42.390625-43.269531v-15h90.660156c16.539063 0 30-13.460938 30-30.082031 0-7.679688-2.902344-14.691407-7.671875-20 4.769531-5.320313 7.671875-12.359376 7.671875-20.078126 0-7.679687-2.902344-14.691406-7.671875-20zm-84.878906 162.417969c2.058594 2.109375 2.679687 4.550781 2.828125 6.230469.019531.191406.042969.378906.070312.578125.101563.621094.140626 1.121094.140626 1.542969v237.050781c0 5.558594-4.339844 10.078125-9.667969 10.078125-5.332031 0-9.671875-4.519531-9.671875-10.078125v-229.730469c0-2.621094-1.03125-5.132812-2.859375-7l-45.410157-46.363281c-1.910156-1.949219-2.929687-4.597656-2.859374-7.457031v-.460938c0-.171875-.011719-.332031-.019532-.5v-160.332031c0-5.558594 4.339844-10.078125 9.667969-10.078125 5.339844 0 9.671875 4.519531 9.671875 10.078125v153.261719c0 2.609375 1.027344 5.128906 2.859375 7zm62.550781-92.257812h-90.652344v-20.082031h90.652344c5.507813 0 10 4.492187 10 10.082031 0 5.507812-4.492187 10-10 10zm0-40.082031h-90.660156v-20.078126h90.660156c5.507813 0 10 4.476563 10 10.078126 0 5.511718-4.492187 10-10 10zm0-40.078126h-90.652344v-20.082031h90.652344c5.507813 0 10 4.480469 10 10.082031 0 5.507813-4.492187 10-10 10zm0 0"/></svg>