<?xml version="1.0" encoding="utf-8"?>
<!-- Generator: Adobe Illustrator 23.0.3, SVG Export Plug-In . SVG Version: 6.00 Build 0)  -->
<svg version="1.1" id="Layer_1" xmlns="http://www.w3.org/2000/svg" xmlns:xlink="http://www.w3.org/1999/xlink" x="0px" y="0px"
	 viewBox="0 0 512 512" style="enable-background:new 0 0 512 512;" xml:space="preserve">
<path d="M411,0H101C84.5,0,71,13.5,71,30v452c0,16.5,13.5,30,30,30h310c16.5,0,30-13.5,30-30V30C441,13.5,427.5,0,411,0z M271.9,20
	h90v28.4c0,5.5-4.5,10-10,10h-70c-5.5,0-10-4.5-10-10V20z M421,482c0,5.5-4.5,10-10,10H101c-5.5,0-10-4.5-10-10V117.9h180
	c5.5,0,10-4.5,10-10s-4.5-10-10-10H91V30c0-5.5,4.5-10,10-10h150.9v28.4c0,16.5,13.5,30,30,30h70c16.5,0,30-13.5,30-30V20H411
	c5.5,0,10,4.5,10,10v67.9h-70c-5.5,0-10,4.5-10,10s4.5,10,10,10h70V482z"/>
<path d="M201,59.1h-60c-5.5,0-10-4.5-10-10s4.5-10,10-10h60c5.5,0,10,4.5,10,10S206.5,59.1,201,59.1z"/>
<path d="M256.3,415.3c-60.7,0-110-49.3-110-110c0-60.7,49.3-110,110-110c34.9,0,67,16,88,44c14.4,19.2,22,42,22,66
	c0,24-7.6,46.9-22,66C323.3,399.2,291.3,415.3,256.3,415.3z M256.3,215.3c-49.6,0-90,40.4-90,90s40.4,90,90,90
	c28.6,0,54.8-13.1,72-36c11.8-15.7,18-34.3,18-54s-6.2-38.3-18-54c0,0,0,0,0,0C311.2,228.4,284.9,215.3,256.3,215.3z M256.3,375.3
	c-38.6,0-70-31.4-70-70s31.4-70,70-70c17.3,0,33.8,6.3,46.7,17.8c2.1,1.9,3.3,4.6,3.3,7.5c0,2.8-1.2,5.6-3.3,7.5
	c-10.6,9.5-16.7,23-16.7,37.3s6.1,27.8,16.7,37.3c2.1,1.9,3.3,4.6,3.3,7.5c0,2.8-1.2,5.6-3.3,7.5
	C290.2,368.9,273.6,375.3,256.3,375.3z M256.3,255.3c-27.6,0-50,22.4-50,50s22.4,50,50,50c8.9,0,17.5-2.3,25-6.7
	c-9.6-12.3-15-27.5-15-43.3c0-15.8,5.4-31.1,15-43.3C273.8,257.6,265.2,255.3,256.3,255.3z"/>
</svg>
