<?xml version="1.0" encoding="utf-8"?>
<!-- Generator: Adobe Illustrator 23.0.3, SVG Export Plug-In . SVG Version: 6.00 Build 0)  -->
<svg version="1.1" id="Layer_1" xmlns="http://www.w3.org/2000/svg" xmlns:xlink="http://www.w3.org/1999/xlink" x="0px" y="0px"
	 viewBox="0 0 512 420" style="enable-background:new 0 0 512 420;" xml:space="preserve">
<style type="text/css">
	.st0{fill:#FFFFFF;}
</style>
<path d="M127.3,223.2c-7.4,6.8-18.8,6.6-25.9-0.6l-23.8-23.7c-3.6-3.6-5.6-8.4-5.5-13.6c0.1-5.1,2.3-10,6-13.4
	C126.7,126.8,189.8,102,256,102s129.3,24.8,177.8,69.9c3.7,3.5,5.9,8.3,6,13.4c0.1,5.1-1.9,9.9-5.5,13.6l-23.8,23.7
	c-3.7,3.7-8.5,5.5-13.3,5.5c-4.5,0-9-1.6-12.6-4.9c-27-24.9-60.2-50.5-128.7-50.5S127.3,223.2,127.3,223.2z"/>
<path d="M42.4,159.4c-2.7,0-5.2-1.1-7.1-2.9L5.5,126.7c-3.6-3.6-5.6-8.4-5.5-13.5c0.1-5.1,2.1-9.8,5.8-13.3C73.6,35.5,162.4,0,256,0
	s182.4,35.5,250.2,99.9c3.7,3.5,5.7,8.2,5.8,13.3c0.1,5.1-1.9,9.9-5.5,13.5l-23.8,23.7c-7.2,7.2-18.7,7.4-26.1,0.3
	C402.2,99.3,330.9,71,256,71c-78,0-151.4,30.4-206.5,85.5C47.6,158.4,45,159.4,42.4,159.4z M20.6,113.5l21.9,21.9
	C100.6,80.9,176,51,256,51c79.7,0,155.4,30,213.5,84.4l22-21.9C427.5,53.2,344,20,256,20S84.5,53.2,20.6,113.5z"/>
<path class="st0" d="M256,151.6c62.8,0,111.5,28.9,141.3,56l22-21.9C374.6,144.6,316.7,122,256,122c-60.7,0-118.6,22.6-163.2,63.6
	l22,21.9C140.8,183.9,193.2,151.6,256,151.6z"/>
<path d="M325.1,300.4c-4.3,0-8.6-1.5-12.2-4.5C297,282.4,276.8,275,256,275s-41,7.4-56.9,20.9c-7.5,6.4-18.4,6-25.3-1l-23.9-23.8
	c-3.6-3.6-5.6-8.7-5.5-13.9c0.2-5.1,2.4-10,6.3-13.4C179.8,218.2,217.2,204,256,204s76.2,14.1,105.3,39.8c3.8,3.4,6.1,8.3,6.3,13.4
	c0.2,5.2-1.8,10.2-5.5,13.9l-23.9,23.8C334.6,298.6,329.8,300.4,325.1,300.4z M256,255c25.2,0,49.6,8.8,69,24.9l22-22
	C321.7,236,289.5,224,256,224c-33.5,0-65.7,12-91,33.9l22,22C206.4,263.8,230.8,255,256,255z"/>
<path d="M256.1,420c-31.4,0-57-25.6-57-57c0-15.2,5.9-29.5,16.7-40.3c10.8-10.8,25.1-16.7,40.3-16.7c15.2,0,29.5,5.9,40.3,16.7
	c10.8,10.8,16.7,25.1,16.7,40.3C313.1,394.4,287.5,420,256.1,420z M256.1,326c-9.9,0-19.2,3.8-26.2,10.8c-7,7-10.8,16.3-10.8,26.2
	c0,20.4,16.6,37,37,37s37-16.6,37-37c0-9.9-3.9-19.2-10.8-26.2C275.2,329.9,265.9,326,256.1,326z"/>
</svg>
