<?xml version="1.0" encoding="utf-8"?>
<!-- Generator: Adobe Illustrator 23.0.3, SVG Export Plug-In . SVG Version: 6.00 Build 0)  -->
<svg version="1.1" id="Layer_1" xmlns="http://www.w3.org/2000/svg" xmlns:xlink="http://www.w3.org/1999/xlink" x="0px" y="0px"
	 viewBox="0 0 512 512" style="enable-background:new 0 0 512 512;" xml:space="preserve">
<path d="M482,282h-32v-12c0-5.5-4.5-10-10-10H327c-5.5,0-10,4.5-10,10v12H74V50c0-16.5,13.5-30,30-30c13.5,0,25,9,28.7,21.3
	C110.6,46.4,94,66.3,94,90c0,5.5,4.5,10,10,10h80c5.5,0,10-4.5,10-10c0-24.4-17.6-44.8-40.8-49.2C148.8,17.6,128.4,0,104,0
	C76.4,0,54,22.4,54,50v232H30c-16.5,0-30,13.5-30,30v20c0,77.2,62.8,140,140,140h6v10c0,16.5,13.5,30,30,30h10c11,0,20-9,20-20v-20
	h100v20c0,11,9,20,20,20h10c16.5,0,30-13.5,30-30v-10h6c37.4,0,72.5-14.6,99-41c26.4-26.4,41-61.6,41-99v-20
	C512,295.4,498.5,282,482,282z M144,60c13,0,24.2,8.4,28.3,20h-56.6C119.8,68.4,131,60,144,60z M337,280h93v61h-93V280z M337,361h93
	v10c0,5.5-4.5,10-10,10h-73c-5.5,0-10-4.5-10-10V361z M20,312c0-5.5,4.5-10,10-10h287v20H20V312z M186,492h-10c-5.5,0-10-4.5-10-10
	v-10h20V492C186,492,186,492,186,492z M346,482c0,5.5-4.5,10-10,10h-10v-20h20V482z M456.9,416.8C434.2,439.5,404.1,452,372,452H140
	c-40.9,0-77.1-20.6-98.8-52H105c5.5,0,10-4.5,10-10s-4.5-10-10-10H30c-5.2-11.8-8.5-24.6-9.6-38H317v29c0,16.5,13.5,30,30,30h73
	c16.5,0,30-13.5,30-30v-29h41.6C489.3,370.3,477.1,396.5,456.9,416.8z M492,322h-42v-20h32c5.5,0,10,4.5,10,10V322z"/>
<path d="M145,350c-5.5,0-10-4.5-10-10s4.5-10,10-10h0c5.5,0,10,4.5,10,10S150.5,350,145,350z"/>
</svg>
