<?xml version="1.0" encoding="utf-8"?>
<!-- Generator: Adobe Illustrator 23.0.3, SVG Export Plug-In . SVG Version: 6.00 Build 0)  -->
<svg version="1.1" id="Layer_1" xmlns="http://www.w3.org/2000/svg" xmlns:xlink="http://www.w3.org/1999/xlink" x="0px" y="0px"
	 viewBox="0 0 512 461" style="enable-background:new 0 0 512 461;" xml:space="preserve">
<path d="M460.8,411.9v33.8c0,8.5,7.6,15.4,17.1,15.4h25.6c4.7,0,8.5-3.4,8.5-7.7V23.1C512,10.3,500.5,0,486.4,0
	c-14.1,0-25.6,10.3-25.6,23.1v58.1c-5.2-2.8-11.1-4.2-17.1-4.3h-34.1v-7.7c0-17-15.3-30.7-34.1-30.7h-93.9
	c-18.9,0-34.1,13.8-34.1,30.7v7.7H183c3.1-4.6,4.7-10,4.7-15.4c0-17-15.3-30.7-34.1-30.7h-51.2c-18.9,0-34.1,13.8-34.1,30.7
	c0,5.4,1.7,10.7,4.7,15.4h-4.7c-6,0-11.9,1.5-17.1,4.3V23.1C51.2,10.3,39.7,0,25.6,0C11.5,0,0,10.3,0,23.1v430.3
	c0,4.2,3.8,7.7,8.5,7.7h25.6c9.4,0,17.1-6.9,17.1-15.4v-33.8 M477.9,23.1c0-4.2,3.8-7.7,8.5-7.7c4.7,0,8.5,3.4,8.5,7.7v391.8
	l-17.1-18.4V23.1z M51.2,335v-30.7c0-8.5,7.6-15.4,17.1-15.4h179.2V335H51.2z M51.2,199.8v-46.1h409.6v46.1H51.2z M408.8,273.6
	c0,0,1.2-30.7-33.8-30.7c-17.7,0-93.4,0-93.4,0c-18.9,0-34.1,13.8-34.1,30.7H183c3.1-4.6,4.7-10,4.7-15.4c0-17-15.3-30.7-34.1-30.7
	h-51.2c-18.9,0-34.1,13.8-34.1,30.7c0,5.4,1.7,10.7,4.7,15.4h-4.7c-6,0-11.9,1.5-17.1,4.3v-62.7h409.6v62.7
	c-5.2-2.8-11.1-4.2-17.1-4.3H408.8z M85.3,258.2c0-8.5,7.6-15.4,17.1-15.4h51.2c9.4,0,17.1,6.9,17.1,15.4c0,8.5-7.6,15.4-17.1,15.4
	h-51.2C93,273.6,85.3,266.7,85.3,258.2z M410,335v-46.1h33.7c9.4,0,17.1,6.9,17.1,15.4V335H410z M375,258.2c9.3,0,20,8.5,20,19.6
	V335H264.5v-61.5c0-8.5,7.6-15.4,17.1-15.4C281.6,258.2,354.9,258.2,375,258.2z M409.6,138.3V92.2h34.1c9.4,0,17.1,6.9,17.1,15.4
	v30.7 M264.5,138.3V69.2c0-8.5,7.6-15.4,17.1-15.4h93.9c9.4,0,17.1,6.9,17.1,15.4v69.2 M85.3,61.5c0-8.5,7.6-15.4,17.1-15.4h51.2
	c9.4,0,17.1,6.9,17.1,15.4s-7.6,15.4-17.1,15.4h-51.2C93,76.8,85.3,70,85.3,61.5z M68.3,92.2h179.2v46.1H51.2v-30.7
	C51.2,99.1,58.8,92.2,68.3,92.2z M17.1,23.1c0-4.2,3.8-7.7,8.5-7.7c4.7,0,8.5,3.4,8.5,7.7v373.4l-17.1,18.4V23.1z M17.1,445.6v-15.4
	l17.1-18.4v33.8H17.1z M51.2,396.5v-46.1h409.6v46.1 M494.9,445.6h-17.1v-33.8l17.1,18.4V445.6z"/>
</svg>
