<?xml version="1.0" encoding="utf-8"?>
<!-- Generator: Adobe Illustrator 23.0.3, SVG Export Plug-In . SVG Version: 6.00 Build 0)  -->
<svg version="1.1" id="Layer_1" xmlns="http://www.w3.org/2000/svg" xmlns:xlink="http://www.w3.org/1999/xlink" x="0px" y="0px"
	 viewBox="0 0 512 461" style="enable-background:new 0 0 512 461;" xml:space="preserve">
<path d="M457,125.8V44.2C457,19.8,440.6,0,420.4,0H284.2c-10.6,0-20.6,5.6-27.5,15.3C249.8,5.6,239.7,0,229.2,0H91.6
	C71.4,0,55,19.8,55,44.2v81.3L0,237.2v172.5c0,6.1,4.1,11.1,9.1,11.1h493.7c5.1,0,9.1-5,9.1-11.1V238.2 M283.3,32.2h137.4
	c10.1,0,18.3,16.4,18.3,17V229c-6.8-5.2-24-32.3-27.5-32.4H292.5c-9.9,0-19.6,4-27.5,11.3V60.8C265,48.6,273.2,32.2,283.3,32.2z
	 M91.3,32.2h137.4c10.1,0,18.3,16.4,18.3,28.6V208c-7.9-7.3-17.5-11.3-27.5-11.3H100.5c-3.4,0-21.6,26.2-27.5,39.5V60.8
	C73,48.6,81.2,32.2,91.3,32.2z M247,276.9V288c0,18.3-12.3,10.7-27.4,10.7H100.4c-15.1,0-27.4,7.6-27.4-10.7v-11.1
	c0-18.3,12.3-33.2,27.4-33.2h119.1C234.7,243.7,247,258.6,247,276.9z M55,255.4V399H18V251.5h37V255.4z M439,399H73v-77.4h366V399z
	 M411.6,298.7H292.4c-15.1,0-27.4,7.6-27.4-10.7v-11.1c0-18.3,12.3-33.2,27.4-33.2h119.1c15.1,0,27.4,14.8,27.4,33.2V288
	C439,306.3,426.7,298.7,411.6,298.7z M494,399h-37V251.5h37V399z"/>
<path d="M109.7,74.7H128V92h-18.3V74.7z"/>
<path d="M109.7,135.4H128v17.3h-18.3V135.4z"/>
<path d="M192,135.4h18.3v17.3H192V135.4z"/>
<path d="M192,74.7h18.3V92H192V74.7z"/>
<path d="M301.7,74.7H320V92h-18.3V74.7z"/>
<path d="M301.7,135.4H320v17.3h-18.3V135.4z"/>
<path d="M384,135.4h18.3v17.3H384V135.4z"/>
<path d="M384,74.7h18.3V92H384V74.7z"/>
<path d="M18,420.8v30.2c0,5.6,5.1,10.1,11.3,10.1h33.9c12.5,0,22.6-9,22.6-20.1v-20.1 M36.5,445.3v-24.5h27.6v24.5H36.5z"/>
<line x1="281.2" y1="568.9" x2="281.2" y2="522.8"/>
<path d="M426.1,420.8v20.1c0,11.1,10.1,20.1,22.6,20.1h33.9c6.3,0,11.3-4.5,11.3-10.1v-30.2 M447.9,445.3v-24.5h27.6v24.5H447.9z"/>
</svg>
