<?xml version="1.0" encoding="utf-8"?>
<!-- Generator: Adobe Illustrator 23.0.3, SVG Export Plug-In . SVG Version: 6.00 Build 0)  -->
<svg version="1.1" id="Layer_1" xmlns="http://www.w3.org/2000/svg" xmlns:xlink="http://www.w3.org/1999/xlink" x="0px" y="0px"
	 viewBox="0 0 512 512" style="enable-background:new 0 0 512 512;" xml:space="preserve">
<path d="M256,512c-68.4,0-132.7-26.6-181-75S0,324.4,0,256S26.6,123.3,75,75S187.6,0,256,0s132.7,26.6,181,75s75,112.6,75,181
	s-26.6,132.7-75,181S324.4,512,256,512z M256,20c-63,0-122.3,24.5-166.9,69.1S20,193,20,256s24.5,122.3,69.1,166.9S193,492,256,492
	s122.3-24.5,166.9-69.1S492,319,492,256s-24.5-122.3-69.1-166.9S319,20,256,20z"/>
<path d="M256,462c-113.6,0-206-92.4-206-206S142.4,50,256,50s206,92.4,206,206S369.6,462,256,462z M256,70C153.4,70,70,153.4,70,256
	s83.4,186,186,186s186-83.4,186-186S358.6,70,256,70z"/>
<path d="M365.6,246h-89.1l84.2-83.3c4.8-4.8,5.5-11.9,1.6-15.8c-3.9-3.9-11-3.2-15.8,1.6L248.1,246h-20.2l0,20h0l-12.1,12l14.1,14.1
	l26.4-26.1h109.3c6.1,0,11.1-4.5,11.1-10C376.7,250.5,371.8,246,365.6,246z"/>
<path d="M256,418c-5.5,0-10-4.5-10-10s4.5-10,10-10h0c5.5,0,10,4.5,10,10S261.5,418,256,418z"/>
<path d="M256,111c-5.5,0-10-4.5-10-10s4.5-10,10-10h0c5.5,0,10,4.5,10,10S261.5,111,256,111z"/>
<path d="M414,266c-5.5,0-10-4.5-10-10s4.5-10,10-10h0c5.5,0,10,4.5,10,10S419.5,266,414,266z"/>
<path d="M99,266c-5.5,0-10-4.5-10-10s4.5-10,10-10h0c5.5,0,10,4.5,10,10S104.5,266,99,266z"/>
</svg>
