<?xml version="1.0" encoding="utf-8"?>
<!-- Generator: Adobe Illustrator 23.0.3, SVG Export Plug-In . SVG Version: 6.00 Build 0)  -->
<svg version="1.1" id="Layer_1" xmlns="http://www.w3.org/2000/svg" xmlns:xlink="http://www.w3.org/1999/xlink" x="0px" y="0px"
	 viewBox="0 0 512 420" style="enable-background:new 0 0 512 420;" xml:space="preserve">
<path d="M412,40c-29.7,0-54.4,21.7-59.2,50H237.6c-5.5,0-10,4.5-10,10s4.5,10,10,10h115.2c4.8,28.3,29.5,50,59.2,50
	c33.1,0,60-26.9,60-60S445.1,40,412,40z M412,140c-22.1,0-40-17.9-40-40s17.9-40,40-40c22.1,0,40,17.9,40,40S434,140,412,140z"/>
<path d="M415.6,0h-38.7c-0.5,0-1.1,0-1.6,0.1L70.8,49.7L26.3,34.9c-6.1-2-12.8-1-18,2.8C3.1,41.4,0,47.5,0,53.9v92.3
	c0,6.4,3.1,12.5,8.3,16.2c3.4,2.5,7.6,3.8,11.7,3.8c2.1,0,4.3-0.3,6.3-1l44.5-14.8l281.1,46V217c-22.8,4.6-40,24.8-40,49
	s17.2,44.4,40,49v45c0,33.1,26.9,60,60,60c33.1,0,60-26.9,60-60V181c4.2-3.2,8.2-6.7,11.8-10.5C502,151.6,512,126.5,512,100
	C512,44.9,468.8,0,415.6,0z M60,132.8l-40,13.3V53.9l40,13.3V132.8z M352,294.3c-11.7-4.1-20-15.3-20-28.3s8.4-24.2,20-28.3V294.3z
	 M452,360c0,22.1-17.9,40-40,40c-22.1,0-40-17.9-40-40V199.5l2,0.3c0.5,0.1,1.1,0.1,1.6,0.1h40c12.4,0,25.1-2.4,36.4-7.4V360z
	 M469.4,156.6c-3.9,4.1-8.3,7.8-13,10.9c-12.2,8.2-26.3,12.5-40.8,12.5h-39.2l-12.8-2.1L80,131.5v-63L377.8,20h37.8
	c42.1,0,76.4,35.9,76.4,80C492,121.4,484,141.5,469.4,156.6C465.5,160.7,484,141.5,469.4,156.6z"/>
</svg>
