<?xml version="1.0" encoding="utf-8"?>
<!-- Generator: Adobe Illustrator 23.0.3, SVG Export Plug-In . SVG Version: 6.00 Build 0)  -->
<svg version="1.1" id="Capa_1" xmlns="http://www.w3.org/2000/svg" xmlns:xlink="http://www.w3.org/1999/xlink" x="0px" y="0px"
	 viewBox="0 0 470.9 470.9" style="enable-background:new 0 0 470.9 470.9;" xml:space="preserve">
<path d="M470.1,137c-1.4-3.5-4.5-5.9-8.5-6.8c-2.2-0.5-4.7-0.5-7.4,0l-25.7,4.5c-8.8,1.5-21.5,6.5-29,11.4L242.2,248.3
	c-7.8-0.5-15.4,1.4-22.1,5.8c-3.3,2.2-4.3,6.6-2.1,10l0,0L58,368c-4.8,3.1-8.2,8-9.4,13.7c-1.2,5.7-0.1,11.5,3,16.3l7.9,12.1
	c3.1,4.8,8,8.2,13.7,9.4c5.7,1.2,11.5,0.1,16.3-3l159.9-104c1.1,1.7,2.7,2.7,4.6,3.1c1.8,0.4,3.8,0.1,5.4-1
	c6.6-4.3,11.6-10.5,14.2-17.9l157.3-102.3c7.5-4.9,17.2-14.5,22.2-21.9l14.5-21.7C471.8,144.6,471.3,139.9,470.1,137z M259.7,288.5
	L244,264.3l1.4-0.9c5.2,1.4,9.6,4.6,12.5,9.1c2.9,4.5,4.1,9.8,3.2,15.1L259.7,288.5z M81.6,404.3c-1.6,1-3.5,1.4-5.4,1
	c-1.9-0.4-3.5-1.5-4.6-3.1l-7.9-12.1c-1-1.6-1.4-3.5-1-5.4c0.4-1.9,1.5-3.5,3.1-4.6l166-107.9l15.7,24.2L81.6,404.3z M441.1,164.5
	c-3.9,5.8-12.2,14-18.1,17.8l-147.7,96c-0.8-4.8-2.6-9.5-5.3-13.7c-2.8-4.2-6.3-7.8-10.4-10.5l147.7-96c5.9-3.8,16.7-8.1,23.6-9.3
	l23.3-4L441.1,164.5z"/>
<path d="M209.5,304c-1-1.6-2.7-2.7-4.6-3.1c-1.9-0.4-3.8,0-5.4,1c-1.6,1-2.7,2.7-3.1,4.6c-0.4,1.9,0,3.8,1,5.4
	c1,1.6,2.7,2.7,4.5,3.1c1.9,0.4,3.8,0,5.4-1c1.6-1,2.7-2.7,3.1-4.5C210.9,307.6,210.5,305.6,209.5,304z"/>
<path d="M206.8,243c1.8,0.4,3.8,0.1,5.4-1c6.6-4.3,11.6-10.5,14.2-17.9l157.3-102.3c7.5-4.9,17.2-14.5,22.2-21.9l14.5-21.7
	c4.2-6.2,3.7-11,2.5-13.9c-1.4-3.5-4.5-5.9-8.5-6.8c-2.2-0.5-4.7-0.5-7.4,0l-25.7,4.5c-8.8,1.5-21.5,6.5-29,11.4L194.9,175.7
	c-7.5-0.5-15.3,1.3-22.1,5.7c-3.3,2.2-4.3,6.6-2.1,10l0,0l-159.9,104c-4.8,3.1-8.2,8-9.4,13.7c-1.2,5.7-0.1,11.5,3,16.3l7.9,12.1
	c3.1,4.8,8,8.2,13.7,9.4s11.5,0.1,16.3-3l159.9-104C203.3,241.5,205,242.6,206.8,243z M198.2,190.8c5,1.3,9.5,4.4,12.5,9.1
	c2.9,4.5,4.1,9.8,3.2,15.1l-1.4,0.9l-15.7-24.2L198.2,190.8z M360.1,85.5c5.9-3.8,16.7-8.1,23.6-9.3l23.3-4l-13.2,19.7
	c-3.9,5.8-12.2,14-18.1,17.8l-147.7,96c-0.8-4.8-2.6-9.5-5.3-13.7c-2.8-4.3-6.4-7.8-10.4-10.5L360.1,85.5z M34.4,331.7
	c-1.6,1-3.5,1.4-5.4,1c-1.9-0.4-3.5-1.5-4.6-3.1l-7.9-12.1c-1-1.6-1.4-3.5-1-5.4c0.4-1.9,1.5-3.5,3.1-4.6l166-107.9l15.7,24.2
	L34.4,331.7z"/>
<path d="M162.3,231.4c-1-1.6-2.7-2.7-4.6-3.1c-1.9-0.4-3.8,0-5.4,1c-1.6,1-2.7,2.7-3.1,4.6c-0.4,1.9,0,3.8,1,5.4
	c1,1.6,2.7,2.7,4.5,3.1c1.9,0.4,3.8,0,5.4-1c1.6-1,2.7-2.7,3.1-4.5C163.7,235,163.3,233,162.3,231.4z"/>
</svg>
