<?xml version="1.0" encoding="utf-8"?>
<!-- Generator: Adobe Illustrator 23.0.3, SVG Export Plug-In . SVG Version: 6.00 Build 0)  -->
<svg version="1.1" id="Layer_1" xmlns="http://www.w3.org/2000/svg" xmlns:xlink="http://www.w3.org/1999/xlink" x="0px" y="0px"
	 viewBox="0 0 512 512" style="enable-background:new 0 0 512 512;" xml:space="preserve">
<path d="M511.5,183c-2.7-18.7-20.3-33.6-37.8-37.7c-16.2-3.8-33-5.8-49.4-8.7c-48.9-8.7-97.9-17.3-146.8-26
	c-3.8-0.7-7.7-1.1-11.5-1.4V78.7c17.2-4.4,30-20.1,30-38.7c0-22.1-17.9-40-40-40c-22,0-40,17.9-40,40c0,5.5,4.5,10,10,10
	c5.5,0,10-4.5,10-10c0-11,9-20,20-20c11,0,20,9,20,20c0,11-9,20-20,20c-5.5,0-10,4.5-10,10v39.3c-21.2,1.5-42.3,6.8-63.3,10.5
	c-46.6,8.3-93.3,16.1-139.9,24.8c-26.3,4.9-53.6,27.8-38.5,57.3C18.4,229.5,44.6,227,71.2,227v254.7c0,16.5,13.4,30,30,30h309.8
	c16.5,0,30-13.5,30-30V227h31C495.9,227,515.3,208.6,511.5,183z M420.9,244.3H294.1c-5.5,0-10,4.5-10,10c0,5.5,4.5,10,10,10h126.9
	v217.4c0,5.5-4.5,10-10,10H101.1c-5.5,0-10-4.5-10-10v-70H271c5.5,0,10-4.5,10-10c0-5.5-4.5-10-10-10H91.1V200.8c0-5.5,4.5-10,10-10
	h10.4c6-0.3,12.1,0,18,0h258.9c4.1,0,8.3-0.3,12.4,0h10c5.5,0,10,4.5,10,10V244.3z M485.2,204.4c-13.4,4.8-30.3,2.9-44.3,2.6v-6.2
	c0-16.5-13.5-30-30-30H101.1c-16.5,0-30,13.4-30,30v6.2c-9.7,0.2-20.1,1-29.8,0c-16-1.6-27.2-19.8-15.8-33.5
	c8.6-10.3,30.4-11,43-13.2c46.4-8.2,92.8-16.4,139.2-24.6c24.6-4.4,45.7-9,70.5-4.6c44.7,7.9,89.4,15.8,134.2,23.8
	C434,158.7,515.1,162.8,485.2,204.4z"/>
</svg>
