<?xml version="1.0" encoding="utf-8"?>
<!-- Generator: Adobe Illustrator 23.0.3, SVG Export Plug-In . SVG Version: 6.00 Build 0)  -->
<svg version="1.1" id="Layer_1" xmlns="http://www.w3.org/2000/svg" xmlns:xlink="http://www.w3.org/1999/xlink" x="0px" y="0px"
	 viewBox="0 0 512 512" style="enable-background:new 0 0 512 512;" xml:space="preserve">
<style type="text/css">
	.st0{fill:#FFFFFF;}
</style>
<path d="M375.5,341.3v-8.5c0-14.1-11.5-25.6-25.6-25.6h-52.5l-5.7-34.1h117.9l59.7-35.6V8.5c0-4.7-3.8-8.5-8.5-8.5H51.2
	c-4.7,0-8.5,3.8-8.5,8.5v230.4l59.7,34.1h117.9l-5.7,34.1h-52.5c-14.1,0-25.6,11.5-25.6,25.6v8.5H80.3C0,341.3,0,366.9,0,366.9
	v136.5c0,4.7,3.8,8.5,8.5,8.5h34.1c3.9,0,7.3-2.7,8.3-6.5l6.9-27.7h396.3l6.9,27.7c0.9,3.8,4.4,6.5,8.3,6.5h34.1
	c4.7,0,8.5-3.8,8.5-8.5V366.9C512,366.9,512.1,341.3,375.5,341.3z M59.7,221.9V17.1h392.5v204.8H59.7z M280.1,307.2h-48.1l5.7-34.1
	h36.7L280.1,307.2z M153.6,332.8c0-4.7,3.8-8.5,8.5-8.5h187.7c4.7,0,8.5,3.8,8.5,8.5v8.5H153.6V332.8z M56.2,341.3 M36,494.9H17.1
	v-17.1h23.2L36,494.9z M494.9,494.9H476l-4.3-17.1h23.2V494.9z"/>
<path class="st0" d="M34.1,401.1v17.1c0,14.1,11.5,25.6,25.6,25.6h392.5c14.1,0,25.6-11.5,25.6-25.6v-17.1
	c0-14.1-11.5-25.6-25.6-25.6H59.7C45.6,375.5,34.1,386.9,34.1,401.1z M460.8,401.1v17.1c0,4.7-3.8,8.5-8.5,8.5H59.7
	c-4.7,0-8.5-3.8-8.5-8.5v-17.1c0-4.7,3.8-8.5,8.5-8.5h392.5C457,392.5,460.8,396.4,460.8,401.1z"/>
<path d="M256,187.7c37.7,0,68.3-30.6,68.3-68.3c0-37.7-30.6-68.3-68.3-68.3s-68.3,30.6-68.3,68.3C187.8,157.2,218.3,187.7,256,187.7
	z M256,68.3c28.3,0,51.2,22.9,51.2,51.2c0,28.3-22.9,51.2-51.2,51.2s-51.2-22.9-51.2-51.2C204.8,91.2,227.7,68.3,256,68.3z"/>
<path d="M234.7,152.5c2.7,1.5,6,1.5,8.6-0.1l42.7-25.6c4-2.4,5.3-7.7,2.9-11.7c-0.7-1.2-1.7-2.2-2.9-2.9l-42.7-25.6
	c-4-2.4-9.3-1.1-11.7,2.9c-0.8,1.3-1.2,2.8-1.2,4.4v51.2C230.4,148.1,232.1,151,234.7,152.5z M247.5,108.9l17.6,10.5L247.5,130
	V108.9z"/>
</svg>
