<svg class="background bg-fixed" xmlns="http://www.w3.org/2000/svg" xmlns:xlink="http://www.w3.org/1999/xlink" viewBox="0 0 800 450"
	 preserveAspectRatio="xMidYMid slice">
	<defs>
		<style>
			.st{fill:#fff}
			.st0{fill:#23477c}
			.st1{opacity:0.22;fill:#0D2133;}
			.st2{fill:#FFF3FF;stroke:#000000;stroke-width:0.5;stroke-miterlimit:10;}
			.st3{fill:#FFCCBC;}
			.st4{fill:#263238;}
			.st5{fill:#FFF3FF;}
			.st6{fill:#EF5350;}
			.st7{fill:#0D2133;}
			.st8{fill:#2A3C4F;}
			.st9{fill:#B2B2B2;}
			.st10{fill:#919191;}
			.st11{fill:#141414;}
			.st12{fill:#0DACD1;}
			.st13{fill:#312E54;}
			.st14{fill:#BF360C;}
			.st15{fill:#222B2B;}
			.st16{fill:#677575;}
			.st17{fill:none;stroke:#F9F9F9;stroke-miterlimit:10;}
			.st20{mask:url(#windMask);}

		</style>
		<linearGradient id="mtd" x1="50%" x2="50%" y1="0%" y2="100%" gradientUnits="objectBoundingBox">
			<stop offset="0" stop-color="#4e89c5"/>
			<stop offset=".8" stop-color="#2865a4"/>
		</linearGradient>
		<linearGradient id="mtl" x1="0%" x2="100%" y1="0%" y2="0%" gradientUnits="objectBoundingBox">
			<stop offset=".1" stop-color="#f1aa94"/>
			<stop offset="1" stop-color="#4e89c5"/>
		</linearGradient>
		<linearGradient id="tree-color" x1="-2.9" x2="1" y1="20.4" y2="-20.7" gradientUnits="userSpaceOnUse">
			<stop offset="0" stop-color="#214a78"/>
			<stop offset="1" stop-color="#4e89c5"/>
		</linearGradient>
		<linearGradient id="sky_1_" x1="400" x2="400" y1="-61.9" y2="202.8" gradientUnits="userSpaceOnUse">
			<stop offset="0" stop-color="#00194f"/>
			<stop offset=".2" stop-color="#00306c"/>
			<stop offset=".5" stop-color="#01559b"/>
			<stop offset=".7" stop-color="#677687"/>
			<stop offset=".9" stop-color="#d39a72"/>
			<stop offset="1" stop-color="#ffa86a"/>
		</linearGradient>
		<linearGradient id="grass_r" x1="35%" x2="60%" y1="45%" y2="75%" gradientUnits="objectBoundingBox">
			<stop offset="0" stop-color="#89b17f"/>
			<stop offset="1" stop-color="#3f7ba0"/>
		</linearGradient>
		<linearGradient id="grass_l" x1="50%" x2="30%" y1="30%" y2="50%" gradientUnits="objectBoundingBox">
			<stop offset="0" stop-color="#89b17f"/>
			<stop offset="1" stop-color="#3f7ba0"/>
		</linearGradient>
		<linearGradient id="water_1_" x1="400" x2="400" y1="331.5" y2="406.4" gradientUnits="userSpaceOnUse">
			<stop offset="0" stop-color="#b0d9f7"/>
			<stop offset=".5" stop-color="#4380af"/>
			<stop offset="1" stop-color="#24619a"/>
		</linearGradient>
		<linearGradient id="rock" x1="15%" x2="40%" y1="15%" y2="70%" gradientUnits="objectBoundingBox">
			<stop offset="0" stop-color="#c56974"/>
			<stop offset="1" stop-color="#58466e"/>
		</linearGradient>
	</defs>
	<symbol id="tree" viewBox="-11.2 -20.9 22.3 41.7">
		<path id="treePath" fill="url(#tree-color)"
			  d="M2.2 20.9L-4 13.5c.7-.3 1.1-1.1 1.7-1.5a4.7 4.7 0 0 1-2.8-2.9c.6-.4 1-1.2 1.5-1.7-1.1-.4-2-1.6-3.2-2.1l1.4-1.5c-.8-.2-1.4-1-2.1-1.3C-6.8 2-6.4.9-5.7.3-6.8.3-7.9-.3-9-.3c.8-.3 1.4-1 2.1-1.4l-1.9-.8c1.1-.5 1.9-1.6 3-2.1C-7-4.8-8-5.8-9.2-6.1c.8-.6 1.2-1.7 1.9-2.2-.7-.4-1.4-1.2-2.2-1.5.7-1.6-.7-2.2 1.2-3.9-1.1-.4-1.9-1.5-2.9-1.9C-8.3-19 2-13.4-1.1-20.7 2-21.7.4-17.2 5-17.6c2.8-.2 3.6-3.1 6.1.5-1 .3-1.8 1.3-2.7 1.6.8.6 1.3 1.7 2.2 2.2l-1.2.5 1.5 1.7c-.9.3-1.5 1.3-2.4 1.6.9.4 1.5 1.5 2.4 2-.9.5-1.7 1.5-2.7 2 2-.2 2.1.2 3 1-.8.2-1.5.6-2.2.9l1.8.5L6.7-.2c.9 0 1.7.4 2.6.4-1 .8-1.6 1.9-2.5 2.6.7 0 1.4.5 2.2.6l-3.7 4 1.7.9-1.5 1.2c5.7-2.2-2.4 9.3-3.3 11.4z"/>
	</symbol>

	<symbol  id="wind" viewBox="-422 -48.3 639.5 96.7">
		<defs>
			<filter id="OpacityMaskFilter" filterUnits="userSpaceOnUse" x="-422" y="-48.3" width="639.5" height="96.7">
				<feColorMatrix  type="matrix" values="1 0 0 0 0  0 1 0 0 0  0 0 1 0 0  0 0 0 1 0"/>
			</filter>
		</defs>
		<mask maskUnits="userSpaceOnUse" x="-422" y="-48.3" width="639.5" height="96.7" id="windMask">
			<g filter="url(#OpacityMaskFilter)">
				<linearGradient id="opacityGradient" gradientUnits="userSpaceOnUse" x1="-286.4752" y1="3.2054" x2="204.4635" y2="3.2054">
					<stop  offset="0.4" style="stop-color:#000000"/>
					<stop  offset="0.4096" style="stop-color:#121212"/>
					<stop  offset="0.4377" style="stop-color:#444444"/>
					<stop  offset="0.4681" style="stop-color:#707070"/>
					<stop  offset="0.5001" style="stop-color:#979797"/>
					<stop  offset="0.5339" style="stop-color:#B7B7B7"/>
					<stop  offset="0.5703" style="stop-color:#D1D1D1"/>
					<stop  offset="0.61" style="stop-color:#E6E6E6"/>
					<stop  offset="0.655" style="stop-color:#F4F4F4"/>
					<stop  offset="0.7094" style="stop-color:#FCFCFC"/>
					<stop  offset="0.8" style="stop-color:#FFFFFF"/>
					<stop  offset="1" style="stop-color:#000000"/>
				</linearGradient>
				<rect x="-291.6" y="-66.8" fill="url(#opacityGradient)"  width="500" height="140"/>
			</g>
		</mask>
		<g class="st20">
			<g id="windParticles">
				<path class="st17" d="M-283.3-23.8c0,0,39.1,0,50.7,0s12.1,13.3,0,13.3"/>
				<path class="st17" d="M-310.5-27.2c0,0,110.7,0,122.3,0s12.1,13.3,0,13.3"/>
				<path class="st17" d="M-330.1-34.6c0,0,106.2,0,117.8,0s12.1-13.3,0-13.3"/>
				<path class="st17" d="M-318.1-30.2c0,0,150.4,0,162,0c11.6,0,12.1-13.3,0-13.3"/>
				<line class="st17" x1="-310.5" y1="-10.9" x2="-275" y2="-10.9"/>
				<line class="st17" x1="-421.9" y1="-44.6" x2="-391.1" y2="-45.1"/>
				<line class="st17" x1="-337.3" y1="-47.8" x2="-312.9" y2="-47.8"/>
				<line class="st17" x1="209.8" y1="-18.7" x2="217.5" y2="-18.7"/>
				<line class="st17" x1="-343.1" y1="-36.9" x2="-330.5" y2="-36.9"/>
				<line class="st17" x1="-403.1" y1="-7" x2="-395.5" y2="-7"/>
				<line class="st17" x1="-372.4" y1="-32.9" x2="-367" y2="-32.9"/>
				<line class="st17" x1="-344.4" y1="-18.4" x2="-339" y2="-18.4"/>
				<line class="st17" x1="-287.5" y1="-20.6" x2="-282.1" y2="-20.6"/>
				<line class="st17" x1="-330.6" y1="-28.4" x2="-327.9" y2="-28.4"/>
				<line class="st17" x1="-403.1" y1="-20.6" x2="-400.4" y2="-20.6"/>
				<line class="st17" x1="-334.2" y1="4.9" x2="-331.5" y2="4.9"/>
				<line class="st17" x1="-236.2" y1="14.3" x2="-234.2" y2="14.3"/>
				<line class="st17" x1="-387.1" y1="-31.9" x2="-385.1" y2="-31.9"/>
				<line class="st17" x1="-374.4" y1="-18.4" x2="-372.4" y2="-18.4"/>
				<line class="st17" x1="-162.6" y1="-23.8" x2="-131.8" y2="-24.3"/>
				<line class="st17" x1="-135.6" y1="-7" x2="-128" y2="-7"/>
				<line class="st17" x1="-102.4" y1="-34.6" x2="-97" y2="-34.6"/>
				<line class="st17" x1="-133.2" y1="-36.5" x2="-130.5" y2="-36.5"/>
				<line class="st17" x1="-101.7" y1="-24.3" x2="-99.7" y2="-24.3"/>
				<line class="st17" x1="-152.8" y1="-9.6" x2="-150.8" y2="-9.6"/>
			</g>
		</g>
	</symbol>


	<path id="sky" fill="url(#sky_1_)" d="M0 0h800v450H0z"/>
	<g id="mountain">
		<path fill="url(#mtd)"
			  d="M377,85.6L111,218.5l85.1,15c29.6-26.4,164.5-147.3,201.5-153.3C390.4,80.5,383.4,82.3,377,85.6z"/>
		<path fill="url(#mtd)"
			  d="M433.2,123.9c-10-15.2-21-29.8-32.8-43.7h-2.8C356,86,192.4,232.1,192.4,232.1l54.3,11.7 C316.5,192.4,393,106.6,433.2,123.9z"/>
		<path fill="url(#mtd)"
			  d="M460.4,172c0,0-8.6-20-27.1-48.1C387.4,101,307.1,188.6,237.4,240l71.5,29.5C336,211.3,391.4,153,391.4,153 C421.4,156,460.4,172,460.4,172z"/>
		<path fill="url(#mtd)" d="M391.4 153s-54 41-110 105l118 49 41-15.2C430 230 402.6 174.2 391.4 153z"/>
		<path fill="url(#mtl)"
			  d="M423 85.8a50.3 50.3 0 0 0-22.6-5.6 454.1 454.1 0 0 1 32.9 43.8L610 228.9l52.7-19.6L423 85.8z"/>
		<path fill="url(#mtl)"
			  d="M433.2 124c18.5 28 27.1 48 27.1 48s49.7 25.8 94 77.5l55.6-20.6C527.6 172.1 433.2 124 433.2 124z"/>
		<path fill="url(#mtl)"
			  d="M504.6 267.9l56.8-20.9c-50.4-51-101-75-101-75s-39-16-69-19c0 0 67.2 50.4 113.2 114.9z"/>
		<path fill="url(#mtl)" d="M512.4 265c-46-64.5-121-112-121-112a546.5 546.5 0 0 1 49 138.8l72-26.8z"/>
	</g>
	<g id="far_right">
		<use width="22.3" height="41.7" x="-11.2" y="-20.9" transform="matrix(.6894 0 0 -.6928 639.8 206.6)"
			 xlink:href="#tree"/>
		<use width="22.3" height="41.7" x="-11.2" y="-20.9" transform="matrix(.6463 0 0 -.6928 679.8 183.4)"
			 xlink:href="#tree"/>
		<use width="22.3" height="41.7" x="-11.2" y="-20.9" transform="matrix(.6894 0 0 -.6697 686 188.7)"
			 xlink:href="#tree"/>
		<use width="22.3" height="41.7" x="-11.2" y="-20.9" transform="matrix(.6894 0 0 -.6697 674.5 192.6)"
			 xlink:href="#tree"/>
		<use width="22.3" height="41.7" x="-11.2" y="-20.9" transform="matrix(.6894 0 0 -.6697 663 196.4)"
			 xlink:href="#tree"/>
		<use width="22.3" height="41.7" x="-11.2" y="-20.9" transform="matrix(.6894 0 0 -.6928 651.4 199.8)"
			 xlink:href="#tree"/>
		<use width="22.3" height="41.7" x="-11.2" y="-20.9" transform="matrix(.6463 0 0 -.6697 636.5 204.1)"
			 xlink:href="#tree"/>
		<use width="22.3" height="41.7" x="-11.2" y="-20.9" transform="matrix(0 0 0 0 649.5 199.8)"
			 xlink:href="#tree"/>

		<path fill="url(#grass_r)" d="M800,146.3c-17.5,4.8-180.4,101.2-214.5,112.5c-89.4,29.1-130.9,38.9-199.9,45.7h-0.3l41.8,19.5
                c63.5,6.4,373-102.8,373-102.8V146.3L800,146.3z"/>
		<path fill="url(#grass_r)" d="M291.4,261.3c6.3,2.8,34.3,15.3,41.9,19c85.4-1.6,185.7,4.6,284.2-67.5C480.7,255.7,394.4,254.9,291.4,261.3
                L291.4,261.3z"/>
		<path fill="url(#grass_r)" d="M727.6,184.9c-17.3-3.8-42.4-10.1-110,27.8c-108.5,56.5-198.5,65.9-283.9,67.5l51.8,24.3
                C455.6,307.5,580.2,286.8,727.6,184.9z"/>
		<path fill="url(#grass_r)" d="M800,221.1c-111.5,14.2-217.7,51.9-254.8,72.8s-78.5,28.4-117.8,30.1l372.6-0.8V221.1z"/>

	</g>
	<use xlink:href="#wind"  width="639.5" height="96.7" id="wind_x5F_mid" x="-422" y="-48.3" transform="matrix(0.8008 0 0 -0.8008 454.5685 272.9156)" style="overflow:visible;"/>
	<g id="far_left">
		<use width="22.3" height="41.7" x="-11.2" y="-20.9" transform="matrix(.5023 0 0 -.4935 113.2 181.5)"
			 xlink:href="#tree"/>
		<use width="22.3" height="41.7" x="-11.2" y="-20.9" transform="matrix(.4604 0 0 -.4935 116.5 185.2)"
			 xlink:href="#tree"/>
		<use width="22.3" height="41.7" x="-11.2" y="-20.9" transform="matrix(.5023 0 0 -.4935 122.5 187.1)"
			 xlink:href="#tree"/>
		<use width="22.3" height="41.7" x="-11.2" y="-20.9" transform="matrix(.5023 0 0 -.4711 129.1 189.4)"
			 xlink:href="#tree"/>
		<use width="22.3" height="41.7" x="-11.2" y="-20.9" transform="matrix(.5023 0 0 -.4711 136.2 193.5)"
			 xlink:href="#tree"/>
		<use width="22.3" height="41.7" x="-11.2" y="-20.9" transform="matrix(.4604 0 0 -.4935 139.9 198.3)"
			 xlink:href="#tree"/>
		<use width="22.3" height="41.7" x="-11.2" y="-20.9" transform="matrix(.4604 0 0 -.4935 108 186.2)"
			 xlink:href="#tree"/>
		<use width="22.3" height="41.7" x="-11.2" y="-20.9" transform="matrix(.5023 0 0 -.4935 98.2 184.3)"
			 xlink:href="#tree"/>
		<use width="22.3" height="41.7" x="-11.2" y="-20.9" transform="matrix(.5023 0 0 -.4935 102.9 181.5)"
			 xlink:href="#tree"/>
		<use width="22.3" height="41.7" x="-11.2" y="-20.9" transform="matrix(.5023 0 0 -.4935 92.6 178.7)"
			 xlink:href="#tree"/>
		<path fill="url(#grass_l)"
			  d="M463.3,330.8c5.1,0,9.4-0.6,12.8-1.7C363.3,265.3,274.6,229.9,221,218.5c-37.1-7.9-111.1-26.5-121-28
                     		C172,233.5,338,297.5,463.3,330.8L463.3,330.8z"/>
		<path fill="url(#grass_l)"
			  d="M463.3,330.8C348.2,304.5,69,166.5-7.2,151.2V194C112.9,205,412,354.5,413.2,355
                     		C430.5,348.2,447.3,340.1,463.3,330.8z"/>
		<path fill="url(#grass_l)" d="M-7.2,192.5v71.4L306.9,355h106.5C359.4,324,110.9,193.2-7.2,192.5z"/>
	</g>
	<use xlink:href="#wind"  width="639.5" height="96.7" id="wind_x5F_far" x="-422" y="-48.3" transform="matrix(0.5306 0 0 -0.5306 190.8634 248.8967)" style="overflow:visible;"/>

	<g id="mid_left">
		<use width="22.3" height="41.7" x="-11.2" y="-20.9" transform="matrix(.9844 0 0 -1.0072 22 225)"
			 xlink:href="#tree"/>
		<use width="22.3" height="41.7" x="-11.2" y="-20.9" transform="matrix(.9844 0 0 -.9832 30 225.5)"
			 xlink:href="#tree"/>
		<use width="22.3" height="41.7" x="-11.2" y="-20.9" transform="matrix(.9844 0 0 -1.0072 43 230)"
			 xlink:href="#tree"/>
		<use width="22.3" height="41.7" x="-11.2" y="-20.9" transform="matrix(.9844 0 0 -1.0072 55 235)"
			 xlink:href="#tree"/>
		<use width="22.3" height="41.7" x="-11.2" y="-20.9" transform="matrix(.9844 0 0 -1.0072 65 239)"
			 xlink:href="#tree"/>
		<use width="22.3" height="41.7" x="-11.2" y="-20.9" transform="matrix(.9844 0 0 -.9832 74 229.5)"
			 xlink:href="#tree"/>
		<use width="22.3" height="41.7" x="-11.2" y="-20.9" transform="matrix(.9844 0 0 -.9832 92 233.5)"
			 xlink:href="#tree"/>
		<use width="22.3" height="41.7" x="-11.2" y="-20.9" transform="matrix(.9844 0 0 -.9832 115 238.5)"
			 xlink:href="#tree"/>
		<use width="22.3" height="41.7" x="-11.2" y="-20.9" transform="matrix(.9844 0 0 -1.0072 133 241)"
			 xlink:href="#tree"/>
		<use width="22.3" height="41.7" x="-11.2" y="-20.9" transform="matrix(.9844 0 0 -.9832 103 242.5)"
			 xlink:href="#tree"/>
		<use width="22.3" height="41.7" x="-11.2" y="-20.9" transform="matrix(.9844 0 0 -.9832 162 259.5)"
			 xlink:href="#tree"/>
		<use width="22.3" height="41.7" x="-11.2" y="-20.9" transform="matrix(.9844 0 0 -.9832 190 267.5)"
			 xlink:href="#tree"/>
		<use width="22.3" height="41.7" x="-11.2" y="-20.9" transform="matrix(.9844 0 0 -.9832 175 268.5)"
			 xlink:href="#tree"/>
		<use width="22.3" height="41.7" x="-11.2" y="-20.9" transform="matrix(.9844 0 0 -.9832 224 297.5)"
			 xlink:href="#tree"/>
		<use width="22.3" height="41.7" x="-11.2" y="-20.9" transform="matrix(.9844 0 0 -.9832 146 249.5)"
			 xlink:href="#tree"/>
		<use width="22.3" height="41.7" x="-11.2" y="-20.9" transform="matrix(.9844 0 0 -.9832 240 301.5)"
			 xlink:href="#tree"/>
		<use width="22.3" height="41.7" x="-11.2" y="-20.9" transform="matrix(.9844 0 0 -.9832 206 287.5)"
			 xlink:href="#tree"/>
		<use width="22.3" height="41.7" x="-11.2" y="-20.9" transform="matrix(.9844 0 0 -1.0072 190 279)"
			 xlink:href="#tree"/>
		<use width="22.3" height="41.7" x="-11.2" y="-20.9" transform="matrix(.9844 0 0 -.9832 157 266.5)"
			 xlink:href="#tree"/>
		<use width="22.3" height="41.7" x="-11.2" y="-20.9" transform="matrix(.9844 0 0 -.9832 101 251.5)"
			 xlink:href="#tree"/>
		<use width="22.3" height="41.7" x="-11.2" y="-20.9" transform="matrix(.9844 0 0 -.9832 81 239.5)"
			 xlink:href="#tree"/>
		<use width="22.3" height="41.7" x="-11.2" y="-20.9" transform="matrix(1.0291 0 0 -1.0072 11.5 240)"
			 xlink:href="#tree"/>
		<use width="22.3" height="41.7" x="-11.2" y="-20.9" transform="matrix(1.0291 0 0 -1.0072 28.5 241)"
			 xlink:href="#tree"/>
		<use width="22.3" height="41.7" x="-11.2" y="-20.9" transform="matrix(.9844 0 0 -.9832 51 250.5)"
			 xlink:href="#tree"/>
		<use width="22.3" height="41.7" x="-11.2" y="-20.9" transform="matrix(.9844 0 0 -.9832 138 256.5)"
			 xlink:href="#tree"/>
		<path fill="url(#grass_l)" d="M-7.2,299.8V355h270.1C206.6,335.7,86.6,284.3-7.2,299.8z"/>
		<path fill="url(#grass_l)"
			  d="M-7.2,275v29l261.5,51h30.3c-37.9-13.9-74.7-30.8-109.8-50.5h-0.1C118.9,275.9,55.1,265.5-7.2,275z"/>
		<path fill="url(#grass_l)"
			  d="M288.8,335.2c-64.2-30.7-151-110.6-296-86.5V275c98.8-14.1,164.9,23.8,195.1,38c40.3,20.6,53.6,24.3,95,42
                     		h49.8C317.8,348.8,303.1,342.1,288.8,335.2z"/>
	</g>
	<g id="mid_right">
		<use width="22.3" height="41.7" x="-11.2" y="-20.9" transform="matrix(.9844 0 0 -.9832 611 284.3)"
			 xlink:href="#tree"/>
		<use width="22.3" height="41.7" x="-11.2" y="-20.9" transform="matrix(.9844 0 0 -.9832 626 282.3)"
			 xlink:href="#tree"/>
		<use width="22.3" height="41.7" x="-11.2" y="-20.9" transform="matrix(.9844 0 0 -.9832 567 301.3)"
			 xlink:href="#tree"/>
		<use width="22.3" height="41.7" x="-11.2" y="-20.9" transform="matrix(.9844 0 0 -.9832 579 300.3)"
			 xlink:href="#tree"/>
		<use width="22.3" height="41.7" x="-11.2" y="-20.9" transform="matrix(.9844 0 0 -.9832 591.7 293.1)"
			 xlink:href="#tree"/>
		<use width="22.3" height="41.7" x="-11.2" y="-20.9" transform="matrix(.9844 0 0 -.9832 740.7 261.1)"
			 xlink:href="#tree"/>
		<use width="22.3" height="41.7" x="-11.2" y="-20.9" transform="matrix(.9844 0 0 -.9832 750.7 268.1)"
			 xlink:href="#tree"/>
		<use width="22.3" height="41.7" x="-11.2" y="-20.9" transform="matrix(.9844 0 0 -.9832 601 300.3)"
			 xlink:href="#tree"/>
		<use width="22.3" height="41.7" x="-11.2" y="-20.9" transform="matrix(.9844 0 0 -.9832 646 278.3)"
			 xlink:href="#tree"/>
		<use width="22.3" height="41.7" x="-11.2" y="-20.9" transform="matrix(1.0291 0 0 -.9832 763.2 256.1)"
			 xlink:href="#tree"/>
		<use width="22.3" height="41.7" x="-11.2" y="-20.9" transform="matrix(.9844 0 0 -.9832 622 298.3)"
			 xlink:href="#tree"/>
		<use width="22.3" height="41.7" x="-11.2" y="-20.9" transform="matrix(.9844 0 0 -.9832 635 287.3)"
			 xlink:href="#tree"/>
		<use width="22.3" height="41.7" x="-11.2" y="-20.9" transform="matrix(.9844 0 0 -.9832 660 280.3)"
			 xlink:href="#tree"/>
		<use width="22.3" height="41.7" x="-11.2" y="-20.9" transform="matrix(.9844 0 0 -.9832 671 283.3)"
			 xlink:href="#tree"/>
		<use width="22.3" height="41.7" x="-11.2" y="-20.9" transform="matrix(.9844 0 0 -.9832 682.7 273.1)"
			 xlink:href="#tree"/>
		<use width="22.3" height="41.7" x="-11.2" y="-20.9" transform="matrix(.9844 0 0 -.9832 693.7 261.1)"
			 xlink:href="#tree"/>
		<use width="22.3" height="41.7" x="-11.2" y="-20.9" transform="matrix(.9844 0 0 -.9832 706.7 267.1)"
			 xlink:href="#tree"/>
		<use width="22.3" height="41.7" x="-11.2" y="-20.9" transform="matrix(.9844 0 0 -.9832 716.8 254.4)"
			 xlink:href="#tree"/>
		<use width="22.3" height="41.7" x="-11.2" y="-20.9" transform="matrix(.9844 0 0 -1.0072 726.7 257.6)"
			 xlink:href="#tree"/>
		<use width="22.3" height="41.7" x="-11.2" y="-20.9" transform="matrix(.9844 0 0 -.9832 649.7 296.1)"
			 xlink:href="#tree"/>
		<path fill="url(#grass_r)" d="M800 279.7c-71.7 7.5-280 51.1-340.8 75.3H800v-75.3z"/>
		<path fill="url(#grass_r)"
			  d="M800 261.3c-54.3 4.2-382.2 57.7-431 93.7h89.7c77.6-29 298-70 341.3-75v-18.7z"/>
	</g>
	<g id="front_trees">
		<use width="22.3" height="41.7" x="-11.2" y="-20.9" transform="matrix(1.6108 0 0 -1.5827 608 339)"
			 xlink:href="#tree"/>
		<use width="22.3" height="41.7" x="-11.2" y="-20.9" transform="matrix(1.6108 0 0 -1.5827 616 342)"
			 xlink:href="#tree"/>
		<use width="22.3" height="41.7" x="-11.2" y="-20.9" transform="matrix(1.566 0 0 -1.5827 595.5 341)"
			 xlink:href="#tree"/>
		<use width="22.3" height="41.7" x="-11.2" y="-20.9" transform="matrix(1.6108 0 0 -1.5827 638 344)"
			 xlink:href="#tree"/>
		<use width="22.3" height="41.7" x="-11.2" y="-20.9" transform="matrix(1.6108 0 0 -1.5827 654 349)"
			 xlink:href="#tree"/>
		<use width="22.3" height="41.7" x="-11.2" y="-20.9" transform="matrix(1.6108 0 0 -1.6067 673 348.5)"
			 xlink:href="#tree"/>
		<use width="22.3" height="41.7" x="-11.2" y="-20.9" transform="matrix(1.566 0 0 -1.5827 694.5 349)"
			 xlink:href="#tree"/>
		<use width="22.3" height="41.7" x="-11.2" y="-20.9" transform="matrix(1.6108 0 0 -1.6067 709 350.5)"
			 xlink:href="#tree"/>
		<use width="22.3" height="41.7" x="-11.2" y="-20.9" transform="matrix(1.566 0 0 -1.6067 727.5 348.5)"
			 xlink:href="#tree"/>
		<use width="22.3" height="41.7" x="-11.2" y="-20.9" transform="matrix(1.566 0 0 -1.6067 742.5 350.5)"
			 xlink:href="#tree"/>
		<use width="22.3" height="41.7" x="-11.2" y="-20.9" transform="matrix(1.566 0 0 -1.6067 755.5 353.5)"
			 xlink:href="#tree"/>
		<use width="22.3" height="41.7" x="-11.2" y="-20.9" transform="matrix(1.6108 0 0 -1.6067 23 338.5)"
			 xlink:href="#tree"/>
		<use width="22.3" height="41.7" x="-11.2" y="-20.9" transform="matrix(1.6108 0 0 -1.5827 42 338)"
			 xlink:href="#tree"/>
		<use width="22.3" height="41.7" x="-11.2" y="-20.9" transform="matrix(1.6108 0 0 -1.6067 63 338.5)"
			 xlink:href="#tree"/>
		<use width="22.3" height="41.7" x="-11.2" y="-20.9" transform="matrix(1.6108 0 0 -1.5827 78 340)"
			 xlink:href="#tree"/>
		<use width="22.3" height="41.7" x="-11.2" y="-20.9" transform="matrix(1.6108 0 0 -1.5827 85 343)"
			 xlink:href="#tree"/>
		<use width="22.3" height="41.7" x="-11.2" y="-20.9" transform="matrix(1.566 0 0 -1.5827 96.5 338)"
			 xlink:href="#tree"/>
		<use width="22.3" height="41.7" x="-11.2" y="-20.9" transform="matrix(1.6108 0 0 -1.5827 111 340)"
			 xlink:href="#tree"/>
		<use width="22.3" height="41.7" x="-11.2" y="-20.9" transform="matrix(1.566 0 0 -1.5827 124.5 343)"
			 xlink:href="#tree"/>
		<use width="22.3" height="41.7" x="-11.2" y="-20.9" transform="matrix(1.6108 0 0 -1.5827 134 340)"
			 xlink:href="#tree"/>
		<use width="22.3" height="41.7" x="-11.2" y="-20.9" transform="matrix(1.6108 0 0 -1.5827 150 332)"
			 xlink:href="#tree"/>
		<use width="22.3" height="41.7" x="-11.2" y="-20.9" transform="matrix(1.6108 0 0 -1.6067 154 343.5)"
			 xlink:href="#tree"/>
		<use width="22.3" height="41.7" x="-11.2" y="-20.9" transform="matrix(1.566 0 0 -1.5827 207.5 341)"
			 xlink:href="#tree"/>
		<use width="22.3" height="41.7" x="-11.2" y="-20.9" transform="matrix(1.566 0 0 -1.5827 215.5 334)"
			 xlink:href="#tree"/>
		<use width="22.3" height="41.7" x="-11.2" y="-20.9" transform="matrix(1.566 0 0 -1.5827 218.5 330)"
			 xlink:href="#tree"/>
		<use width="22.3" height="41.7" x="-11.2" y="-20.9" transform="matrix(1.6108 0 0 -1.6067 227 339.5)"
			 xlink:href="#tree"/>
		<use width="22.3" height="41.7" x="-11.2" y="-20.9" transform="matrix(1.566 0 0 -1.5827 418.5 331)"
			 xlink:href="#tree"/>
		<use width="22.3" height="41.7" x="-11.2" y="-20.9" transform="matrix(0 0 0 0 424 324)" xlink:href="#tree"/>
		<use width="22.3" height="41.7" x="-11.2" y="-20.9" transform="matrix(1.566 0 0 -1.6067 426.5 333.5)"
			 xlink:href="#tree"/>
		<use width="22.3" height="41.7" x="-11.2" y="-20.9" transform="matrix(0 0 0 0 432 327)" xlink:href="#tree"/>
		<use width="22.3" height="41.7" x="-11.2" y="-20.9" transform="matrix(1.6108 0 0 -1.6067 431 334.5)"
			 xlink:href="#tree"/>
		<use width="22.3" height="41.7" x="-11.2" y="-20.9" transform="matrix(0 0 0 0 437 328)" xlink:href="#tree"/>
		<use width="22.3" height="41.7" x="-11.2" y="-20.9" transform="matrix(1.6108 0 0 -1.5827 406 333)"
			 xlink:href="#tree"/>
		<use width="22.3" height="41.7" x="-11.2" y="-20.9" transform="matrix(.04474 0 0 0 411.5 326)"
			 xlink:href="#tree"/>
		<use width="22.3" height="41.7" x="-11.2" y="-20.9" transform="matrix(1.566 0 0 -1.6067 448.5 335.5)"
			 xlink:href="#tree"/>
		<use width="22.3" height="41.7" x="-11.2" y="-20.9" transform="matrix(.04474 0 0 0 454.5 329)"
			 xlink:href="#tree"/>
		<use width="22.3" height="41.7" x="-11.2" y="-20.9" transform="matrix(1.566 0 0 -1.5827 464.5 341)"
			 xlink:href="#tree"/>
		<use width="22.3" height="41.7" x="-11.2" y="-20.9" transform="matrix(.04474 0 0 0 470.5 334)"
			 xlink:href="#tree"/>
		<use width="22.3" height="41.7" x="-11.2" y="-20.9" transform="matrix(1.566 0 0 -1.5827 483.5 340)"
			 xlink:href="#tree"/>
		<use width="22.3" height="41.7" x="-11.2" y="-20.9" transform="matrix(0 0 0 -.02398 489 333.5)"
			 xlink:href="#tree"/>
		<use width="22.3" height="41.7" x="-11.2" y="-20.9" transform="matrix(1.6108 0 0 -1.5827 505 341)"
			 xlink:href="#tree"/>
		<use width="22.3" height="41.7" x="-11.2" y="-20.9" transform="matrix(.04474 0 0 0 510.5 334)"
			 xlink:href="#tree"/>
		<use width="22.3" height="41.7" x="-11.2" y="-20.9" transform="matrix(1.566 0 0 -1.5827 519.5 342)"
			 xlink:href="#tree"/>
		<use width="22.3" height="41.7" x="-11.2" y="-20.9" transform="matrix(0 0 0 -.02398 525 335.5)"
			 xlink:href="#tree"/>
		<use width="22.3" height="41.7" x="-11.2" y="-20.9" transform="matrix(.04474 0 0 0 532.5 339)"
			 xlink:href="#tree"/>
		<use width="22.3" height="41.7" x="-11.2" y="-20.9" transform="matrix(1.6108 0 0 -1.5827 538 340)"
			 xlink:href="#tree"/>
		<use width="22.3" height="41.7" x="-11.2" y="-20.9" transform="matrix(.04474 0 0 -.02398 543.5 333.5)"
			 xlink:href="#tree"/>
		<use width="22.3" height="41.7" x="-11.2" y="-20.9" transform="matrix(1.6108 0 0 -1.5827 553 342)"
			 xlink:href="#tree"/>
		<use width="22.3" height="41.7" x="-11.2" y="-20.9" transform="matrix(.04474 0 0 -.02398 558.5 335.5)"
			 xlink:href="#tree"/>
		<use width="22.3" height="41.7" x="-11.2" y="-20.9" transform="matrix(1.6108 0 0 -1.5827 566 345)"
			 xlink:href="#tree"/>
		<use width="22.3" height="41.7" x="-11.2" y="-20.9" transform="matrix(.04474 0 0 0 571.5 339)"
			 xlink:href="#tree"/>
		<use width="22.3" height="41.7" x="-11.2" y="-20.9" transform="matrix(1.566 0 0 -1.5827 575.5 342)"
			 xlink:href="#tree"/>
		<use width="22.3" height="41.7" x="-11.2" y="-20.9" transform="matrix(0 0 0 -.02398 581 335.5)"
			 xlink:href="#tree"/>
		<use width="22.3" height="41.7" x="-11.2" y="-20.9" transform="matrix(1.6108 0 0 -1.6546 89 330.5)"
			 xlink:href="#tree"/>
		<use width="22.3" height="41.7" x="-11.2" y="-20.9" transform="matrix(0 0 0 0 95 324)" xlink:href="#tree"/>
		<use width="22.3" height="41.7" x="-11.2" y="-20.9" transform="matrix(0 0 0 0 103 327)" xlink:href="#tree"/>
		<use width="22.3" height="41.7" x="-11.2" y="-20.9" transform="matrix(0 0 0 -.02398 108 327.5)"
			 xlink:href="#tree"/>
		<use width="22.3" height="41.7" x="-11.2" y="-20.9" transform="matrix(0 0 0 0 82 326)" xlink:href="#tree"/>
		<use width="22.3" height="41.7" x="-11.2" y="-20.9" transform="matrix(0 0 0 -.02398 126 328.5)"
			 xlink:href="#tree"/>
		<use width="22.3" height="41.7" x="-11.2" y="-20.9" transform="matrix(.04474 0 0 0 142.5 334)"
			 xlink:href="#tree"/>
		<use width="22.3" height="41.7" x="-11.2" y="-20.9" transform="matrix(.04474 0 0 -.02398 161.5 333.5)"
			 xlink:href="#tree"/>
		<use width="22.3" height="41.7" x="-11.2" y="-20.9" transform="matrix(1.6108 0 0 -1.6306 178 341)"
			 xlink:href="#tree"/>
		<use width="22.3" height="41.7" x="-11.2" y="-20.9" transform="matrix(.04474 0 0 0 183.5 334)"
			 xlink:href="#tree"/>
		<use width="22.3" height="41.7" x="-11.2" y="-20.9" transform="matrix(1.6555 0 0 -1.6546 193.5 342.5)"
			 xlink:href="#tree"/>
		<use width="22.3" height="41.7" x="-11.2" y="-20.9" transform="matrix(0 0 0 -.02398 199 335.5)"
			 xlink:href="#tree"/>
		<use width="22.3" height="41.7" x="-11.2" y="-20.9" transform="matrix(.04474 0 0 0 206.5 339)"
			 xlink:href="#tree"/>
		<use width="22.3" height="41.7" x="-11.2" y="-20.9" transform="matrix(0 0 0 -.02398 218 333.5)"
			 xlink:href="#tree"/>
		<use width="22.3" height="41.7" x="-11.2" y="-20.9" transform="matrix(.04474 0 0 -.02398 233.5 335.5)"
			 xlink:href="#tree"/>
		<use width="22.3" height="41.7" x="-11.2" y="-20.9" transform="matrix(1.6555 0 0 -1.6546 241.5 345.5)"
			 xlink:href="#tree"/>
		<use width="22.3" height="41.7" x="-11.2" y="-20.9" transform="matrix(0 0 0 0 247 339)" xlink:href="#tree"/>
		<use width="22.3" height="41.7" x="-11.2" y="-20.9" transform="matrix(1.6108 0 0 -1.6546 251 342.5)"
			 xlink:href="#tree"/>
		<use width="22.3" height="41.7" x="-11.2" y="-20.9" transform="matrix(.04474 0 0 -.02398 256.5 335.5)"
			 xlink:href="#tree"/>
		<use width="22.3" height="41.7" x="-11.2" y="-20.9" transform="matrix(1.6555 0 0 -1.6306 267.5 334)"
			 xlink:href="#tree"/>
		<use width="22.3" height="41.7" x="-11.2" y="-20.9" transform="matrix(.04474 0 0 -.02398 273.5 327.5)"
			 xlink:href="#tree"/>
		<use width="22.3" height="41.7" x="-11.2" y="-20.9" transform="matrix(1.6555 0 0 -1.6306 271.5 346)"
			 xlink:href="#tree"/>
		<use width="22.3" height="41.7" x="-11.2" y="-20.9" transform="matrix(.04474 0 0 -.02398 277.5 339.5)"
			 xlink:href="#tree"/>
		<use width="22.3" height="41.7" x="-11.2" y="-20.9" transform="matrix(1.6108 0 0 -1.6546 285 348.5)"
			 xlink:href="#tree"/>
		<use width="22.3" height="41.7" x="-11.2" y="-20.9" transform="matrix(.04474 0 0 0 290.5 342)"
			 xlink:href="#tree"/>
		<use width="22.3" height="41.7" x="-11.2" y="-20.9" transform="matrix(1.6108 0 0 -1.6546 306 338.5)"
			 xlink:href="#tree"/>
		<use width="22.3" height="41.7" x="-11.2" y="-20.9" transform="matrix(0 0 0 0 312 332)" xlink:href="#tree"/>
		<use width="22.3" height="41.7" x="-11.2" y="-20.9" transform="matrix(1.6555 0 0 -1.6306 315.5 344)"
			 xlink:href="#tree"/>
		<use width="22.3" height="41.7" x="-11.2" y="-20.9" transform="matrix(0 0 0 0 321 337)" xlink:href="#tree"/>
		<use width="22.3" height="41.7" x="-11.2" y="-20.9" transform="matrix(1.6555 0 0 -1.6546 326.5 343.5)"
			 xlink:href="#tree"/>
		<use width="22.3" height="41.7" x="-11.2" y="-20.9" transform="matrix(.04474 0 0 -.02398 332.5 336.5)"
			 xlink:href="#tree"/>
		<use width="22.3" height="41.7" x="-11.2" y="-20.9" transform="matrix(1.6555 0 0 -1.6546 335.5 336.5)"
			 xlink:href="#tree"/>
		<use width="22.3" height="41.7" x="-11.2" y="-20.9" transform="matrix(0 0 0 -.02398 341 329.5)"
			 xlink:href="#tree"/>
		<use width="22.3" height="41.7" x="-11.2" y="-20.9" transform="matrix(1.6555 0 0 -1.6306 338.5 332)"
			 xlink:href="#tree"/>
		<use width="22.3" height="41.7" x="-11.2" y="-20.9" transform="matrix(0 0 0 -.02398 344 325.5)"
			 xlink:href="#tree"/>
		<use width="22.3" height="41.7" x="-11.2" y="-20.9" transform="matrix(1.6108 0 0 -1.6306 347 342)"
			 xlink:href="#tree"/>
		<use width="22.3" height="41.7" x="-11.2" y="-20.9" transform="matrix(.04474 0 0 0 352.5 335)"
			 xlink:href="#tree"/>
		<use width="22.3" height="41.7" x="-11.2" y="-20.9" transform="matrix(1.6555 0 0 -1.6306 361.5 344)"
			 xlink:href="#tree"/>
		<use width="22.3" height="41.7" x="-11.2" y="-20.9" transform="matrix(.04474 0 0 0 367.5 337)"
			 xlink:href="#tree"/>
		<use width="22.3" height="41.7" x="-11.2" y="-20.9" transform="matrix(1.6555 0 0 -1.6546 367.5 340.5)"
			 xlink:href="#tree"/>
		<use width="22.3" height="41.7" x="-11.2" y="-20.9" transform="matrix(0 0 0 0 373 334)" xlink:href="#tree"/>
		<use width="22.3" height="41.7" x="-11.2" y="-20.9" transform="matrix(1.6108 0 0 -1.6546 376 339.5)"
			 xlink:href="#tree"/>
		<use width="22.3" height="41.7" x="-11.2" y="-20.9" transform="matrix(0 0 0 0 382 333)" xlink:href="#tree"/>
		<use width="22.3" height="41.7" x="-11.2" y="-20.9" transform="matrix(1.6555 0 0 -1.6306 384.5 326)"
			 xlink:href="#tree"/>
		<use width="22.3" height="41.7" x="-11.2" y="-20.9" transform="matrix(0 0 0 0 390 319)" xlink:href="#tree"/>
	</g>
	<path id="water" fill="url(#water_1_)" d="M0 355h800v95H0z"/>
	<use xlink:href="#wind"  width="639.5" height="96.7" id="wind_x5F_close" x="-422" y="-48.3" transform="matrix(0.6175 0 0 -0.6175 290.7848 331.7471)" style="overflow:visible;"/>

	<g id="island_l">
		<path fill="url(#grass_l)" d="M0 367v-50.2c107 9.6 280.9 26 385 50.2H0z"/>
		<path fill="#20567f" d="M0 367v21c107-4 280.9-10.9 385-21H0z"/>
	</g>
	<g id="island_r">
		<path fill="url(#rock)" d="M341.5 398.3c-47.4 3.4-97.1 9.9-146.8 18.9l2-.9c60.4-27.8 126.8-23.5 144.8-18z"/>
		<path fill="url(#rock)" d="M102.4 450c76.1-44.5 228.6-50.9 228.6-50.9l-31.6 11.5L133.2 450h-30.8z"/>
		<path fill="url(#rock)"
			  d="M299.3 410.6S206.8 450 196.2 450h-63a5156 5156 0 0 1 166.1-39.4zM743.5 381a434.9 434.9 0 0 0-91.9 24.6l.8-.6c11.4-6.8 24-29 38.6-31.7 29.7-5.3 50.4 6.7 52.5 7.7z"/>
		<path fill="url(#rock)"
			  d="M593.2 450c4.6-7.2 9.4-14.4 14.4-21.5 5.8-4.3 12-7.9 18.3-10.5 9.1-3.7 16.9-6.1 25.8-12.4a441 441 0 0 1 91.9-24.6c3.4 1.7 6.3 3.8 8.8 6.1-51.5 12-95.1 38.1-139.8 62.9h-19.4z"/>
		<path fill="url(#rock)"
			  d="M752.3 387.1c4.2 3.7 7.5 8.1 11.1 12.6-35.5 7.3-73.8 27.7-111.2 50.3h-39.6c44.6-24.8 88.2-50.9 139.7-62.9zM791.5 425.7c3.1 2.6 6 5.2 8.5 8.2.1 5.2-.1 10.6-.6 16H678.6c39.2-19.1 78.8-27.3 112.9-24.2z"/>
		<path fill="url(#rock)"
			  d="M763.4 399.7c2.2 2.8 4.4 5.7 7 8.5 5.9 6.5 14 11.7 21.1 17.5-34.1-3.2-73.7 5-112.9 24.3h-26.4c37.4-22.6 75.7-43 111.2-50.3z"/>
		<path fill="url(#grass_r)"
			  d="M800 296c-185.4 22-367.3 60.2-540.1 129.9-21.9 8.5-42.8 18.9-65 24.1H800V296z"/>
	</g>
	<g id="people">
		<path id="shadow" class="st1" d="M427.8,384.3c-2,0.7-4,4.3-5.6,5.8c-1.6,1.4-2.7,0.9-2,2.9c1.2,3.5,6,3.7,9.7,3.3
			c5-0.6,10-1.2,15.1-1.7c0.5,2.4,3.9,2.6,6.3,2.2c6.7-1.2,13.3-2.3,20-3.5c4.1-0.7,9.2-6.3,12.6-8.6c3.4-2.3,5.9-2.5,4.6-6.4
			c-1.6-4.8-10.9-4.7-15.8-4.3c-4.1,0.3-5.8,0.5-10,0.5c-3.5,0-5.4-0.4-9,0.7C445,378,436.4,381.2,427.8,384.3z"/>
		<path id="phone" class="st2" d="M432.3,318.1h-2.8c-0.1,0-0.1,0-0.1-0.1v-5.8c0-0.1,0-0.1,0.1-0.1h2.8c0.1,0,0.1,0,0.1,0.1L432.3,318.1
            C432.4,318,432.4,318.1,432.3,318.1z"/>
		<path class="st6" d="M447.3,321.9c-2.5,1.1-5.1,3-7.7,3.4c-0.4-1.6-7-7.4-8.9-6.1c-1.7,1.2-1.1,3.1-0.3,5c1.4,3.2,5.4,6,7.8,8.4
            c5-0.6,6.8-1,11.2-2.8"/>
		<path class="st3" d="M429.9,320.8c-0.6-0.6-1.2-2.2-1.2-2.2s-0.1-1.3,0.4-2c-0.1-0.1,0.2-1.4,0.3-1.4c0,0.9,0.2,2.2,0.5,3
            c0.6-0.1,1.3-1,1.6-1.1c0.2,0.6-1,1.4-0.2,3"/>
		<path class="st4" d="M456.6,381.4c0.4-4.3-0.2-16.2-0.2-16.2l-2.7-17.7l9-0.3l-2.4,17.1c2.3,2.9-0.4,14-1.4,16.9
			C458.1,381.3,457.3,381.4,456.6,381.4z"/>
		<path class="st4" d="M450.3,383.5c0.2-4.3-1-16.2-1-16.2l-3.6-22.3l9.1,4.1l-1.6,17.1c2.4,2.7,0.2,13.9-0.6,16.9
			C451.8,383.3,451.1,383.4,450.3,383.5z"/>
		<path class="st3" d="M447.7,311.9c-0.6,0.2-0.6,1.9-1.6,3.3c1-0.1,0.6,2.3,0.8,2.6c0.2,0.3,1.1-0.6,1.3,2.5
			C451.2,319.8,447.7,312,447.7,311.9z"/>
		<path class="st4" d="M446.9,309.9c1-4,6.5-4.7,8.2-0.9c0.4,0.9,0.3,1.9,0.6,2.8c0.3,1.3,1,2.2,1.5,3.4l-8.9,4.6
			c-0.4-1.8,0.3-3.5-0.2-5.3C447.6,313,446.5,311.7,446.9,309.9z"/>
		<path class="st5" d="M456.5,315.3c-0.5,0.1-1,0.2-1.6,0.3c-3.3,0.9-6.4,2.4-9,5.3c-0.2,0.2-0.4,0.5-0.6,0.7
			c-0.5,0.6-1,1.3-1.2,2.1c-0.2,0.8-0.2,1.7,0.3,2.2c0,0,0,0,0-0.1c0.6-2.1,2.2-3.6,3.8-4.3c1.6-0.7,3.3-0.7,5-0.6
			c1.6,0.1,3.3,0.2,5-0.3c-0.2-1.5,0.7-2.4,1.2-3.6c0-0.1,0.1-0.2,0.1-0.3C459.9,315.2,458.4,315,456.5,315.3z"/>

		<path class="st4" d="M452.6,383.1c0.1,1.2,0.5,2.3-0.2,3.2c-0.7,1-3.7-0.4-5.1,0.2c-0.6,0.3-3.3,0.6-3.1-0.4
			c0.4-1.9,5.1-1.7,6.9-3.2C451.5,382.6,452.1,382.6,452.6,383.1z"/>
		<path class="st4" d="M458.9,381.1c0.1,1.2,0.5,2.3-0.2,3.2c-0.7,1-3.7-0.4-5.1,0.2c-0.6,0.3-3.3,0.6-3.1-0.4
			c0.4-1.9,5.1-1.7,6.9-3.2C457.7,380.6,458.4,380.5,458.9,381.1z"/>
		<path class="st6" d="M455.2,344.1c1.6-1.1,10.8-24.5-2.2-24.9c-5.5,0-7.9,4.4-8.3,11.8c-0.8,7-1.6,11.1,0,12
			C442,346.4,457,349.5,455.2,344.1z"/>
		<path class="st7" d="M465.2,352.7c2.1,5-15.7,4.9-12.8-2.6C454.1,354.1,461.1,355.3,465.2,352.7z"/>
		<path class="st7" d="M452.9,340.4c-1.2,0.2-2.4,0.4-3.5,0.8c-0.8,0.2-1.6,0.5-2.3,0.9c-0.2,0.1-0.5,0.2-0.7,0.4
			c-0.2,0.2-0.3,0.6-0.3,0.9c0,0.1,0,0.3,0,0.4c0.1,1.4,1.1,2.5,2.2,3.3c0.6,0.4,1.2,0.8,1.7,1.2c0.1,0.1,0.2,0.1,0.2,0.2
			c0.9,0.6,1.8,1.2,2.8,1.9c0-0.9-0.1-1.7-0.1-2.6c0-1.9,0-3.8,0.1-5.7C453.1,341.5,453.1,340.9,452.9,340.4z"/>
		<path class="st7" d="M451.4,324.6c4.2,0,1.5,19.3-0.1,19.3C449.2,343.9,449.8,324.6,451.4,324.6z"/>
		<path class="st7"
			  d="M469.7,337.5c-0.5,5.9-2.7,8.9-8.9,8.7c-8.3-0.2-9.4-6.2-9.4-11.7S469.7,332.1,469.7,337.5z"/>
		<path class="st6" d="M469.3,338.4c-0.7,5.7-4.5,6.5-8.3,7.4c-4.4,1.1-8.1-5.3-8.1-10L469.3,338.4z"/>
		<path class="st8" d="M465.2,325.5h-13.7c0.5,0.3,1,0.5,1.5,0.9c-0.7,0.7-1.5,2.2-1.5,8.1c0.4,0.3,8.3,6.7,7.6,11.3
			c3.1,0.3,7.2-0.4,8.7-2.7c0.1-2.6,2.8-5.8,2.8-7.3C470.7,332.8,470.5,326.4,465.2,325.5z"/>
		<path class="st8" d="M452.2,340c-2.9,5.3-0.4,13.9,6.4,14.1c6.8,0.2,6.5-1.3,6.5-1.3c0.5-2.4,2.1-3.6,2.1-3.6
			c0.3-2.1-1-2.8-1-2.8l-0.2-1.6C463.8,346.1,455.3,348.3,452.2,340z"/>
		<path class="st8" d="M466.6,351.3c-0.3,0.5-0.6,1-1.1,1.3c-0.1,0.1-0.2,0.2-0.3,0.2c0,0,0,0,0,0c0.2-0.8,0.5-1.6,0.9-2.3
			C466.3,350.7,466.5,350.9,466.6,351.3z"/>
		<path class="st8"
			  d="M460.8,352.1c0.1,0.7,0.2,1.4,0.3,2.1c-0.9,0.1-2.4,0.2-3.3-0.2C458.8,353.3,459.8,352.7,460.8,352.1z"/>
		<path class="st6"
			  d="M467.3,349.3c0,0.3-0.4,1.4-0.7,2c-0.1-0.3-0.3-0.6-0.5-0.8C466.4,350.1,466.8,349.7,467.3,349.3z"/>
		<path class="st6" d="M457.4,351.8c0.4-0.8,0.8-1.5,1.4-2.1C464.2,352.2,455.3,356,457.4,351.8z"/>
		<path class="st6" d="M463.9,337.4c0-0.6-1-0.5-0.9,0.1c0.2,4-0.3,8-1.5,11.9c-0.2,0.6,0.7,0.7,0.9,0.1
			C463.6,345.6,464.1,341.5,463.9,337.4z"/>
		<path class="st6" d="M469.7,337.1c0-0.6-0.9-0.5-0.9,0.1c0,4-0.9,8-2.6,11.7c-0.2,0.5,0.6,0.9,0.8,0.4
			C468.8,345.5,469.7,341.3,469.7,337.1z"/>
		<path class="st9" d="M450.9,317.6c0,0,15.4,0,16.7,0c2.5,0,4.3,3.1,3.1,6.2h-19.8V317.6z"/>
		<path class="st10" d="M453.4,323.8c2.5-3.1-0.3-6.1-2.5-6.2c-2.4,0-4.3,1.9-4.3,4.3s2.5,3.7,4.3,3.7H467c1.6,0,3.1-0.6,3.7-1.9
			H453.4z"/>
		<path class="st11" d="M463.3,325.7l1.3,0c1.6,0,3.1-0.8,3.8-2.2c1.5-3-0.5-5.9-3.3-5.9l-1.3,0c2.3,0,3.9,1.9,3.8,4.1
			C467.5,323.9,465.5,325.7,463.3,325.7z"/>
		<path class="st11" d="M455.2,325.7l1.3,0c1.6,0,3.1-0.8,3.8-2.2c1.5-3-0.5-5.9-3.3-5.9l-1.3,0c2.3,0,3.9,1.9,3.8,4.1
			C459.4,323.9,457.4,325.7,455.2,325.7z"/>
		<path class="st3"
			  d="M487.2,343.7c-0.3,1.5-0.1,3.9,0.3,3.7c0.5-5.2,1.3,1.2,1.7,1.3c0.4-0.3,0.1-3.3,0.2-4.5"/>
		<path class="st12" d="M479.5,318.3c2,4.5,3.3,8.8,5.3,13.3c-0.7,3.1-0.3,10.4,2.2,12.3c5.5,3.5,6-10.1,5.8-14.1
				c-0.2-4.6-3.1-8.6-5.3-12.5L479.5,318.3z"/>
		<path class="st13" d="M480.5,348.2c0.2,0.1,0.4,0.1,0.6,0.1C480.9,348.3,480.7,348.3,480.5,348.2
			C480.5,348.2,480.5,348.2,480.5,348.2z"/>
		<path class="st3" d="M445.4,321.5c-1.5-0.4-3.4,1.3-2.8,2.8c1.6-0.5,1.6-1.6,2.4,0"/>
		<path class="st12" d="M471.5,315.7c-4.7,1.7-9.1,2.6-13.8,4.3c-3.1-1-10.5-1.1-12.5,1.3c-3.9,5.2,9.7,6.8,13.8,6.9
			c4.6,0.1,8.9-2.4,13-4.4L471.5,315.7z"/>
		<path class="st4" d="M482.6,376.4c0.1,1.2,0.5,2.3-0.2,3.2c-0.7,1-3.7-0.4-5.1,0.2c-0.6,0.3-3.3,0.6-3.1-0.4
			c0.4-1.9,5.1-1.7,6.9-3.2C481.5,376,482.1,375.9,482.6,376.4z"/>
		<path class="st8" d="M480.3,376.9c0.4-4.5-0.3-16.9-0.3-16.9l-2.8-18.4l9.3-0.3l-2.5,17.7c2.4,3-0.4,14.5-1.5,17.6
			C481.8,376.8,481,376.9,480.3,376.9z"/>
		<path class="st4" d="M476.1,378.7c0.1,1.2,0.5,2.3-0.2,3.2c-0.7,1-3.7-0.4-5.1,0.2c-0.6,0.3-3.3,0.6-3.1-0.4
			c0.4-1.9,5.1-1.7,6.9-3.2C475,378.2,475.6,378.2,476.1,378.7z"/>
		<path class="st8" d="M473.7,379.1c0.2-4.5-1-16.8-1-16.8l-3.8-23.2l9.5,4.3l-1.7,17.8c2.5,2.9,0.2,14.5-0.7,17.6
			C475.3,378.9,474.5,379,473.7,379.1z"/>
		<path class="st3" d="M477.2,313c0.6-3.5-5.6-7.1-6.2-8.3c-0.9,1.1-1.1,4.4-0.8,5.7c0.2,1,0.8-0.1,1.3,0.7
			c0.4,0.8,0.2,1.1,0.2,2.2C473.5,312.9,475.4,313.6,477.2,313z"/>
		<path class="st12" d="M478,339.1c1.6-1.1,10.8-24.5-2.2-24.9c-5.5,0-7.9,4.4-8.3,11.8c-0.8,7-1.6,11.1,0,12
			C464.7,341.4,479.7,344.5,478,339.1z"/>
		<path class="st14" d="M471.2,305.4c-1.2-0.5-1.8-1.9-1.5-3.1c0.7-2.4,3.7-3.3,5-3.1c1.3,0.2,2.6,1.2,2.7,2.6
			c1.9-0.9,4,3.3-0.6,9.1c-1.3,0-1.4-0.1-2.8-0.1C473.1,309,472.2,307.2,471.2,305.4z"/>
		<path class="st11" d="M487.7,347c2.1,5-15.7,4.9-12.8-2.6C476.6,348.3,483.6,349.5,487.7,347z"/>
		<path class="st11" d="M475.4,334.7c-1.2,0.2-2.4,0.4-3.5,0.8c-0.8,0.2-1.6,0.5-2.3,0.9c-0.2,0.1-0.5,0.2-0.7,0.4
			c-0.2,0.2-0.3,0.6-0.3,0.9c0,0.1,0,0.3,0,0.4c0.1,1.4,1.1,2.5,2.2,3.3c0.6,0.4,1.2,0.8,1.7,1.2c0.1,0.1,0.2,0.1,0.2,0.2
			c0.9,0.6,1.8,1.2,2.8,1.9c0-0.9-0.1-1.7-0.1-2.6c0-1.9,0-3.8,0.1-5.7C475.6,335.8,475.6,335.2,475.4,334.7z"/>
		<path class="st15" d="M473.9,318.9c4.2,0,1.5,19.3-0.1,19.3C471.8,338.2,472.3,318.9,473.9,318.9z"/>
		<path class="st15"
			  d="M492.3,331.7c-0.5,5.9-2.7,8.9-8.9,8.7c-8.3-0.2-9.4-6.2-9.4-11.7S492.3,326.3,492.3,331.7z"/>
		<path class="st9" d="M491.9,332.6c-0.7,5.7-4.5,6.5-8.3,7.4c-4.4,1.1-8.1-5.3-8.1-10L491.9,332.6z"/>
		<path class="st16" d="M487.7,319.7H474c0.5,0.3,1,0.5,1.5,0.9c-0.7,0.7-1.5,2.2-1.5,8.1c0.4,0.3,8.3,6.7,7.6,11.3
			c3.1,0.3,7.2-0.4,8.7-2.7c0.1-2.6,2.8-5.8,2.8-7.3C493.2,327.1,493,320.7,487.7,319.7z"/>
		<path class="st16" d="M474.8,334.3c-2.9,5.3-0.4,13.9,6.4,14.1c6.8,0.2,6.5-1.3,6.5-1.3c0.5-2.4,2.1-3.6,2.1-3.6
			c0.3-2.1-1-2.8-1-2.8l-0.2-1.6C486.3,340.3,477.8,342.6,474.8,334.3z"/>
		<path class="st15" d="M489.1,345.6c-0.3,0.5-0.6,1-1.1,1.3c-0.1,0.1-0.2,0.2-0.3,0.2c0,0,0,0,0,0c0.2-0.8,0.5-1.6,0.9-2.3
			C488.8,345,489,345.2,489.1,345.6z"/>
		<path class="st15"
			  d="M483.3,346.3c0.1,0.7,0.2,1.4,0.3,2.1c-0.9,0.1-2.4,0.2-3.3-0.2C481.3,347.6,482.3,347,483.3,346.3z"/>
		<path class="st9"
			  d="M489.8,343.6c0,0.3-0.4,1.4-0.7,2c-0.1-0.3-0.3-0.6-0.5-0.8C488.9,344.3,489.3,343.9,489.8,343.6z"/>
		<path class="st9" d="M479.9,346.1c0.4-0.8,0.8-1.5,1.4-2.1C486.7,346.5,477.9,350.3,479.9,346.1z"/>
		<path class="st11" d="M486.4,331.7c0-0.6-1-0.5-0.9,0.1c0.2,4-0.3,8-1.5,11.9c-0.2,0.6,0.7,0.7,0.9,0.1
			C486.1,339.8,486.7,335.8,486.4,331.7z"/>
		<path class="st11" d="M492.3,331.4c0-0.6-0.9-0.5-0.9,0.1c0,4-0.9,8-2.6,11.7c-0.2,0.5,0.6,0.9,0.8,0.4
			C491.3,339.7,492.2,335.6,492.3,331.4z"/>
		<path class="st9" d="M473.4,311.8c0,0,15.4,0,16.7,0c2.5,0,4.3,3.1,3.1,6.2h-19.8V311.8z"/>
		<path class="st10" d="M475.9,318c2.5-3.1-0.3-6.1-2.5-6.2c-2.4,0-4.3,1.9-4.3,4.3s2.5,3.7,4.3,3.7h16.1c1.6,0,3.1-0.6,3.7-1.9
			H475.9z"/>
		<path class="st11" d="M485.8,320l1.3,0c1.6,0,3.1-0.8,3.8-2.2c1.5-3-0.5-5.9-3.3-5.9l-1.3,0c2.3,0,3.9,1.9,3.8,4.1
			C490,318.2,488,320,485.8,320z"/>
		<path class="st11" d="M477.7,320l1.3,0c1.6,0,3.1-0.8,3.8-2.2c1.5-3-0.5-5.9-3.3-5.9l-1.3,0c2.3,0,3.9,1.9,3.8,4.1
			C481.9,318.2,480,320,477.7,320z"/>
	</g>
</svg>
